<svg xmlns="http://www.w3.org/2000/svg" xmlns:xlink="http://www.w3.org/1999/xlink" version="1.1" class="marks" width="821" height="431" viewBox="0 0 821 431"><rect width="821" height="431" fill="white"/><g fill="none" stroke-miterlimit="10" transform="translate(27,57)"><g class="mark-group role-frame root" role="graphics-object" aria-roledescription="group mark container"><g transform="translate(0,0)"><path class="background" aria-hidden="true" d="M0,0h0v0h0Z"/><g><g class="mark-group role-column-title column-title" role="graphics-object" aria-roledescription="group mark container"><g transform="translate(394,-31)"><path class="background" aria-hidden="true" d="M0,0h0v0h0Z"/><g><g class="mark-group role-title"><g transform="translate(0,-21)"><path class="background" aria-hidden="true" d="M0,0h0v0h0Z" pointer-events="none"/><g><g class="mark-text role-title-text" role="graphics-symbol" aria-roledescription="title" aria-label="Title text 'metric'" pointer-events="none"><text text-anchor="middle" transform="translate(0,9)" font-family="arial narrow" font-size="16px" font-weight="bold" fill="#000" opacity="1">metric</text></g></g><path class="foreground" aria-hidden="true" d="" pointer-events="none" display="none"/></g></g></g><path class="foreground" aria-hidden="true" d="" display="none"/></g></g><g class="mark-group role-row-header row_header" role="graphics-object" aria-roledescription="group mark container"><g transform="translate(-1,0)"><path class="background" aria-hidden="true" d="M0,0h0v300h0Z"/><g><g class="mark-group role-axis" role="graphics-symbol" aria-roledescription="axis" aria-label="Y-axis for a linear scale with values from 0.0 to 1.0"><g transform="translate(0.5,0.5)"><path class="background" aria-hidden="true" d="M0,0h0v0h0Z" pointer-events="none"/><g><g class="mark-rule role-axis-tick" pointer-events="none"><line transform="translate(0,300)" x2="-5" y2="0" stroke="#888" stroke-width="1" opacity="1"/><line transform="translate(0,270)" x2="-5" y2="0" stroke="#888" stroke-width="1" opacity="1"/><line transform="translate(0,240)" x2="-5" y2="0" stroke="#888" stroke-width="1" opacity="1"/><line transform="translate(0,210)" x2="-5" y2="0" stroke="#888" stroke-width="1" opacity="1"/><line transform="translate(0,180)" x2="-5" y2="0" stroke="#888" stroke-width="1" opacity="1"/><line transform="translate(0,150)" x2="-5" y2="0" stroke="#888" stroke-width="1" opacity="1"/><line transform="translate(0,120)" x2="-5" y2="0" stroke="#888" stroke-width="1" opacity="1"/><line transform="translate(0,90)" x2="-5" y2="0" stroke="#888" stroke-width="1" opacity="1"/><line transform="translate(0,60)" x2="-5" y2="0" stroke="#888" stroke-width="1" opacity="1"/><line transform="translate(0,30)" x2="-5" y2="0" stroke="#888" stroke-width="1" opacity="1"/><line transform="translate(0,0)" x2="-5" y2="0" stroke="#888" stroke-width="1" opacity="1"/></g><g class="mark-text role-axis-label" pointer-events="none"><text text-anchor="end" transform="translate(-7,304)" font-family="arial narrow" font-size="16px" fill="#000" opacity="1">0.0</text><text text-anchor="end" transform="translate(-7,274)" font-family="arial narrow" font-size="16px" fill="#000" opacity="1">0.1</text><text text-anchor="end" transform="translate(-7,244)" font-family="arial narrow" font-size="16px" fill="#000" opacity="1">0.2</text><text text-anchor="end" transform="translate(-7,214)" font-family="arial narrow" font-size="16px" fill="#000" opacity="1">0.3</text><text text-anchor="end" transform="translate(-7,184)" font-family="arial narrow" font-size="16px" fill="#000" opacity="1">0.4</text><text text-anchor="end" transform="translate(-7,154)" font-family="arial narrow" font-size="16px" fill="#000" opacity="1">0.5</text><text text-anchor="end" transform="translate(-7,124)" font-family="arial narrow" font-size="16px" fill="#000" opacity="1">0.6</text><text text-anchor="end" transform="translate(-7,94.00000000000001)" font-family="arial narrow" font-size="16px" fill="#000" opacity="1">0.7</text><text text-anchor="end" transform="translate(-7,63.999999999999986)" font-family="arial narrow" font-size="16px" fill="#000" opacity="1">0.8</text><text text-anchor="end" transform="translate(-7,33.99999999999999)" font-family="arial narrow" font-size="16px" fill="#000" opacity="1">0.9</text><text text-anchor="end" transform="translate(-7,4)" font-family="arial narrow" font-size="16px" fill="#000" opacity="1">1.0</text></g><g class="mark-rule role-axis-domain" pointer-events="none"><line transform="translate(0,300)" x2="0" y2="-300" stroke="#888" stroke-width="1" opacity="1"/></g></g><path class="foreground" aria-hidden="true" d="" pointer-events="none" display="none"/></g></g></g><path class="foreground" aria-hidden="true" d="" display="none"/></g></g><g class="mark-group role-column-header column_header" role="graphics-object" aria-roledescription="group mark container"><g transform="translate(0,-1)"><path class="background" aria-hidden="true" d="M0,0h140v0h-140Z"/><g><g class="mark-group role-title"><g transform="translate(70,-20)"><path class="background" aria-hidden="true" d="M0,0h0v0h0Z" pointer-events="none"/><g><g class="mark-text role-title-text" role="graphics-symbol" aria-roledescription="title" aria-label="Title text 'MRR'" pointer-events="none"><text text-anchor="middle" transform="translate(0,8)" font-family="arial narrow" font-size="16px" fill="#000" opacity="1">MRR</text></g></g><path class="foreground" aria-hidden="true" d="" pointer-events="none" display="none"/></g></g></g><path class="foreground" aria-hidden="true" d="" display="none"/></g><g transform="translate(162,-1)"><path class="background" aria-hidden="true" d="M0,0h140v0h-140Z"/><g><g class="mark-group role-title"><g transform="translate(70,-20)"><path class="background" aria-hidden="true" d="M0,0h0v0h0Z" pointer-events="none"/><g><g class="mark-text role-title-text" role="graphics-symbol" aria-roledescription="title" aria-label="Title text 'hits@01'" pointer-events="none"><text text-anchor="middle" transform="translate(0,8)" font-family="arial narrow" font-size="16px" fill="#000" opacity="1">hits@01</text></g></g><path class="foreground" aria-hidden="true" d="" pointer-events="none" display="none"/></g></g></g><path class="foreground" aria-hidden="true" d="" display="none"/></g><g transform="translate(324,-1)"><path class="background" aria-hidden="true" d="M0,0h140v0h-140Z"/><g><g class="mark-group role-title"><g transform="translate(70,-20)"><path class="background" aria-hidden="true" d="M0,0h0v0h0Z" pointer-events="none"/><g><g class="mark-text role-title-text" role="graphics-symbol" aria-roledescription="title" aria-label="Title text 'hits@03'" pointer-events="none"><text text-anchor="middle" transform="translate(0,8)" font-family="arial narrow" font-size="16px" fill="#000" opacity="1">hits@03</text></g></g><path class="foreground" aria-hidden="true" d="" pointer-events="none" display="none"/></g></g></g><path class="foreground" aria-hidden="true" d="" display="none"/></g><g transform="translate(486,-1)"><path class="background" aria-hidden="true" d="M0,0h140v0h-140Z"/><g><g class="mark-group role-title"><g transform="translate(70,-20)"><path class="background" aria-hidden="true" d="M0,0h0v0h0Z" pointer-events="none"/><g><g class="mark-text role-title-text" role="graphics-symbol" aria-roledescription="title" aria-label="Title text 'hits@05'" pointer-events="none"><text text-anchor="middle" transform="translate(0,8)" font-family="arial narrow" font-size="16px" fill="#000" opacity="1">hits@05</text></g></g><path class="foreground" aria-hidden="true" d="" pointer-events="none" display="none"/></g></g></g><path class="foreground" aria-hidden="true" d="" display="none"/></g><g transform="translate(648,-1)"><path class="background" aria-hidden="true" d="M0,0h140v0h-140Z"/><g><g class="mark-group role-title"><g transform="translate(70,-20)"><path class="background" aria-hidden="true" d="M0,0h0v0h0Z" pointer-events="none"/><g><g class="mark-text role-title-text" role="graphics-symbol" aria-roledescription="title" aria-label="Title text 'hits@10'" pointer-events="none"><text text-anchor="middle" transform="translate(0,8)" font-family="arial narrow" font-size="16px" fill="#000" opacity="1">hits@10</text></g></g><path class="foreground" aria-hidden="true" d="" pointer-events="none" display="none"/></g></g></g><path class="foreground" aria-hidden="true" d="" display="none"/></g></g><g class="mark-group role-column-footer column_footer" role="graphics-object" aria-roledescription="group mark container"><g transform="translate(0,301)"><path class="background" aria-hidden="true" d="M0,0h140v0h-140Z"/><g><g class="mark-group role-axis" role="graphics-symbol" aria-roledescription="axis" aria-label="X-axis for a discrete scale with 7 values: Terminal, Retr. Term., Embedding, Distance, Combined, PPO Dist., PPO. Embed."><g transform="translate(0.5,0.5)"><path class="background" aria-hidden="true" d="M0,0h0v0h0Z" pointer-events="none"/><g><g class="mark-rule role-axis-tick" pointer-events="none"><line transform="translate(10,0)" x2="0" y2="5" stroke="#888" stroke-width="1" opacity="1"/><line transform="translate(30,0)" x2="0" y2="5" stroke="#888" stroke-width="1" opacity="1"/><line transform="translate(50,0)" x2="0" y2="5" stroke="#888" stroke-width="1" opacity="1"/><line transform="translate(70,0)" x2="0" y2="5" stroke="#888" stroke-width="1" opacity="1"/><line transform="translate(90,0)" x2="0" y2="5" stroke="#888" stroke-width="1" opacity="1"/><line transform="translate(110,0)" x2="0" y2="5" stroke="#888" stroke-width="1" opacity="1"/><line transform="translate(130,0)" x2="0" y2="5" stroke="#888" stroke-width="1" opacity="1"/></g><g class="mark-text role-axis-label" pointer-events="none"><text text-anchor="end" transform="translate(9.5,7) rotate(270) translate(0,4)" font-family="arial narrow" font-size="16px" fill="#000" opacity="1">Terminal</text><text text-anchor="end" transform="translate(29.5,7) rotate(270) translate(0,4)" font-family="arial narrow" font-size="16px" fill="#000" opacity="1">Retr. Term.</text><text text-anchor="end" transform="translate(49.5,7) rotate(270) translate(0,4)" font-family="arial narrow" font-size="16px" fill="#000" opacity="1">Embedding</text><text text-anchor="end" transform="translate(69.5,7) rotate(270) translate(0,4)" font-family="arial narrow" font-size="16px" fill="#000" opacity="1">Distance</text><text text-anchor="end" transform="translate(89.5,7) rotate(270) translate(0,4)" font-family="arial narrow" font-size="16px" fill="#000" opacity="1">Combined</text><text text-anchor="end" transform="translate(109.5,7) rotate(270) translate(0,4)" font-family="arial narrow" font-size="16px" fill="#000" opacity="1">PPO Dist.</text><text text-anchor="end" transform="translate(129.5,7) rotate(270) translate(0,4)" font-family="arial narrow" font-size="16px" fill="#000" opacity="1">PPO. Embed.</text></g><g class="mark-rule role-axis-domain" pointer-events="none"><line transform="translate(0,0)" x2="140" y2="0" stroke="#888" stroke-width="1" opacity="1"/></g></g><path class="foreground" aria-hidden="true" d="" pointer-events="none" display="none"/></g></g></g><path class="foreground" aria-hidden="true" d="" display="none"/></g><g transform="translate(162,301)"><path class="background" aria-hidden="true" d="M0,0h140v0h-140Z"/><g><g class="mark-group role-axis" role="graphics-symbol" aria-roledescription="axis" aria-label="X-axis for a discrete scale with 7 values: Terminal, Retr. Term., Embedding, Distance, Combined, PPO Dist., PPO. Embed."><g transform="translate(0.5,0.5)"><path class="background" aria-hidden="true" d="M0,0h0v0h0Z" pointer-events="none"/><g><g class="mark-rule role-axis-tick" pointer-events="none"><line transform="translate(10,0)" x2="0" y2="5" stroke="#888" stroke-width="1" opacity="1"/><line transform="translate(30,0)" x2="0" y2="5" stroke="#888" stroke-width="1" opacity="1"/><line transform="translate(50,0)" x2="0" y2="5" stroke="#888" stroke-width="1" opacity="1"/><line transform="translate(70,0)" x2="0" y2="5" stroke="#888" stroke-width="1" opacity="1"/><line transform="translate(90,0)" x2="0" y2="5" stroke="#888" stroke-width="1" opacity="1"/><line transform="translate(110,0)" x2="0" y2="5" stroke="#888" stroke-width="1" opacity="1"/><line transform="translate(130,0)" x2="0" y2="5" stroke="#888" stroke-width="1" opacity="1"/></g><g class="mark-text role-axis-label" pointer-events="none"><text text-anchor="end" transform="translate(9.5,7) rotate(270) translate(0,4)" font-family="arial narrow" font-size="16px" fill="#000" opacity="1">Terminal</text><text text-anchor="end" transform="translate(29.5,7) rotate(270) translate(0,4)" font-family="arial narrow" font-size="16px" fill="#000" opacity="1">Retr. Term.</text><text text-anchor="end" transform="translate(49.5,7) rotate(270) translate(0,4)" font-family="arial narrow" font-size="16px" fill="#000" opacity="1">Embedding</text><text text-anchor="end" transform="translate(69.5,7) rotate(270) translate(0,4)" font-family="arial narrow" font-size="16px" fill="#000" opacity="1">Distance</text><text text-anchor="end" transform="translate(89.5,7) rotate(270) translate(0,4)" font-family="arial narrow" font-size="16px" fill="#000" opacity="1">Combined</text><text text-anchor="end" transform="translate(109.5,7) rotate(270) translate(0,4)" font-family="arial narrow" font-size="16px" fill="#000" opacity="1">PPO Dist.</text><text text-anchor="end" transform="translate(129.5,7) rotate(270) translate(0,4)" font-family="arial narrow" font-size="16px" fill="#000" opacity="1">PPO. Embed.</text></g><g class="mark-rule role-axis-domain" pointer-events="none"><line transform="translate(0,0)" x2="140" y2="0" stroke="#888" stroke-width="1" opacity="1"/></g></g><path class="foreground" aria-hidden="true" d="" pointer-events="none" display="none"/></g></g></g><path class="foreground" aria-hidden="true" d="" display="none"/></g><g transform="translate(324,301)"><path class="background" aria-hidden="true" d="M0,0h140v0h-140Z"/><g><g class="mark-group role-axis" role="graphics-symbol" aria-roledescription="axis" aria-label="X-axis for a discrete scale with 7 values: Terminal, Retr. Term., Embedding, Distance, Combined, PPO Dist., PPO. Embed."><g transform="translate(0.5,0.5)"><path class="background" aria-hidden="true" d="M0,0h0v0h0Z" pointer-events="none"/><g><g class="mark-rule role-axis-tick" pointer-events="none"><line transform="translate(10,0)" x2="0" y2="5" stroke="#888" stroke-width="1" opacity="1"/><line transform="translate(30,0)" x2="0" y2="5" stroke="#888" stroke-width="1" opacity="1"/><line transform="translate(50,0)" x2="0" y2="5" stroke="#888" stroke-width="1" opacity="1"/><line transform="translate(70,0)" x2="0" y2="5" stroke="#888" stroke-width="1" opacity="1"/><line transform="translate(90,0)" x2="0" y2="5" stroke="#888" stroke-width="1" opacity="1"/><line transform="translate(110,0)" x2="0" y2="5" stroke="#888" stroke-width="1" opacity="1"/><line transform="translate(130,0)" x2="0" y2="5" stroke="#888" stroke-width="1" opacity="1"/></g><g class="mark-text role-axis-label" pointer-events="none"><text text-anchor="end" transform="translate(9.5,7) rotate(270) translate(0,4)" font-family="arial narrow" font-size="16px" fill="#000" opacity="1">Terminal</text><text text-anchor="end" transform="translate(29.5,7) rotate(270) translate(0,4)" font-family="arial narrow" font-size="16px" fill="#000" opacity="1">Retr. Term.</text><text text-anchor="end" transform="translate(49.5,7) rotate(270) translate(0,4)" font-family="arial narrow" font-size="16px" fill="#000" opacity="1">Embedding</text><text text-anchor="end" transform="translate(69.5,7) rotate(270) translate(0,4)" font-family="arial narrow" font-size="16px" fill="#000" opacity="1">Distance</text><text text-anchor="end" transform="translate(89.5,7) rotate(270) translate(0,4)" font-family="arial narrow" font-size="16px" fill="#000" opacity="1">Combined</text><text text-anchor="end" transform="translate(109.5,7) rotate(270) translate(0,4)" font-family="arial narrow" font-size="16px" fill="#000" opacity="1">PPO Dist.</text><text text-anchor="end" transform="translate(129.5,7) rotate(270) translate(0,4)" font-family="arial narrow" font-size="16px" fill="#000" opacity="1">PPO. Embed.</text></g><g class="mark-rule role-axis-domain" pointer-events="none"><line transform="translate(0,0)" x2="140" y2="0" stroke="#888" stroke-width="1" opacity="1"/></g></g><path class="foreground" aria-hidden="true" d="" pointer-events="none" display="none"/></g></g></g><path class="foreground" aria-hidden="true" d="" display="none"/></g><g transform="translate(486,301)"><path class="background" aria-hidden="true" d="M0,0h140v0h-140Z"/><g><g class="mark-group role-axis" role="graphics-symbol" aria-roledescription="axis" aria-label="X-axis for a discrete scale with 7 values: Terminal, Retr. Term., Embedding, Distance, Combined, PPO Dist., PPO. Embed."><g transform="translate(0.5,0.5)"><path class="background" aria-hidden="true" d="M0,0h0v0h0Z" pointer-events="none"/><g><g class="mark-rule role-axis-tick" pointer-events="none"><line transform="translate(10,0)" x2="0" y2="5" stroke="#888" stroke-width="1" opacity="1"/><line transform="translate(30,0)" x2="0" y2="5" stroke="#888" stroke-width="1" opacity="1"/><line transform="translate(50,0)" x2="0" y2="5" stroke="#888" stroke-width="1" opacity="1"/><line transform="translate(70,0)" x2="0" y2="5" stroke="#888" stroke-width="1" opacity="1"/><line transform="translate(90,0)" x2="0" y2="5" stroke="#888" stroke-width="1" opacity="1"/><line transform="translate(110,0)" x2="0" y2="5" stroke="#888" stroke-width="1" opacity="1"/><line transform="translate(130,0)" x2="0" y2="5" stroke="#888" stroke-width="1" opacity="1"/></g><g class="mark-text role-axis-label" pointer-events="none"><text text-anchor="end" transform="translate(9.5,7) rotate(270) translate(0,4)" font-family="arial narrow" font-size="16px" fill="#000" opacity="1">Terminal</text><text text-anchor="end" transform="translate(29.5,7) rotate(270) translate(0,4)" font-family="arial narrow" font-size="16px" fill="#000" opacity="1">Retr. Term.</text><text text-anchor="end" transform="translate(49.5,7) rotate(270) translate(0,4)" font-family="arial narrow" font-size="16px" fill="#000" opacity="1">Embedding</text><text text-anchor="end" transform="translate(69.5,7) rotate(270) translate(0,4)" font-family="arial narrow" font-size="16px" fill="#000" opacity="1">Distance</text><text text-anchor="end" transform="translate(89.5,7) rotate(270) translate(0,4)" font-family="arial narrow" font-size="16px" fill="#000" opacity="1">Combined</text><text text-anchor="end" transform="translate(109.5,7) rotate(270) translate(0,4)" font-family="arial narrow" font-size="16px" fill="#000" opacity="1">PPO Dist.</text><text text-anchor="end" transform="translate(129.5,7) rotate(270) translate(0,4)" font-family="arial narrow" font-size="16px" fill="#000" opacity="1">PPO. Embed.</text></g><g class="mark-rule role-axis-domain" pointer-events="none"><line transform="translate(0,0)" x2="140" y2="0" stroke="#888" stroke-width="1" opacity="1"/></g></g><path class="foreground" aria-hidden="true" d="" pointer-events="none" display="none"/></g></g></g><path class="foreground" aria-hidden="true" d="" display="none"/></g><g transform="translate(648,301)"><path class="background" aria-hidden="true" d="M0,0h140v0h-140Z"/><g><g class="mark-group role-axis" role="graphics-symbol" aria-roledescription="axis" aria-label="X-axis for a discrete scale with 7 values: Terminal, Retr. Term., Embedding, Distance, Combined, PPO Dist., PPO. Embed."><g transform="translate(0.5,0.5)"><path class="background" aria-hidden="true" d="M0,0h0v0h0Z" pointer-events="none"/><g><g class="mark-rule role-axis-tick" pointer-events="none"><line transform="translate(10,0)" x2="0" y2="5" stroke="#888" stroke-width="1" opacity="1"/><line transform="translate(30,0)" x2="0" y2="5" stroke="#888" stroke-width="1" opacity="1"/><line transform="translate(50,0)" x2="0" y2="5" stroke="#888" stroke-width="1" opacity="1"/><line transform="translate(70,0)" x2="0" y2="5" stroke="#888" stroke-width="1" opacity="1"/><line transform="translate(90,0)" x2="0" y2="5" stroke="#888" stroke-width="1" opacity="1"/><line transform="translate(110,0)" x2="0" y2="5" stroke="#888" stroke-width="1" opacity="1"/><line transform="translate(130,0)" x2="0" y2="5" stroke="#888" stroke-width="1" opacity="1"/></g><g class="mark-text role-axis-label" pointer-events="none"><text text-anchor="end" transform="translate(9.5,7) rotate(270) translate(0,4)" font-family="arial narrow" font-size="16px" fill="#000" opacity="1">Terminal</text><text text-anchor="end" transform="translate(29.5,7) rotate(270) translate(0,4)" font-family="arial narrow" font-size="16px" fill="#000" opacity="1">Retr. Term.</text><text text-anchor="end" transform="translate(49.5,7) rotate(270) translate(0,4)" font-family="arial narrow" font-size="16px" fill="#000" opacity="1">Embedding</text><text text-anchor="end" transform="translate(69.5,7) rotate(270) translate(0,4)" font-family="arial narrow" font-size="16px" fill="#000" opacity="1">Distance</text><text text-anchor="end" transform="translate(89.5,7) rotate(270) translate(0,4)" font-family="arial narrow" font-size="16px" fill="#000" opacity="1">Combined</text><text text-anchor="end" transform="translate(109.5,7) rotate(270) translate(0,4)" font-family="arial narrow" font-size="16px" fill="#000" opacity="1">PPO Dist.</text><text text-anchor="end" transform="translate(129.5,7) rotate(270) translate(0,4)" font-family="arial narrow" font-size="16px" fill="#000" opacity="1">PPO. Embed.</text></g><g class="mark-rule role-axis-domain" pointer-events="none"><line transform="translate(0,0)" x2="140" y2="0" stroke="#888" stroke-width="1" opacity="1"/></g></g><path class="foreground" aria-hidden="true" d="" pointer-events="none" display="none"/></g></g></g><path class="foreground" aria-hidden="true" d="" display="none"/></g></g><g class="mark-group role-scope cell" role="graphics-object" aria-roledescription="group mark container"><g transform="translate(0,0)"><path class="background" aria-hidden="true" d="M0.5,0.5h140v300h-140Z" stroke="#ddd"/><g><g class="mark-group role-axis" aria-hidden="true"><g transform="translate(0.5,0.5)"><path class="background" aria-hidden="true" d="M0,0h0v0h0Z" pointer-events="none"/><g><g class="mark-rule role-axis-grid" pointer-events="none"><line transform="translate(0,300)" x2="140" y2="0" stroke="#ddd" stroke-width="1" opacity="1"/><line transform="translate(0,270)" x2="140" y2="0" stroke="#ddd" stroke-width="1" opacity="1"/><line transform="translate(0,240)" x2="140" y2="0" stroke="#ddd" stroke-width="1" opacity="1"/><line transform="translate(0,210)" x2="140" y2="0" stroke="#ddd" stroke-width="1" opacity="1"/><line transform="translate(0,180)" x2="140" y2="0" stroke="#ddd" stroke-width="1" opacity="1"/><line transform="translate(0,150)" x2="140" y2="0" stroke="#ddd" stroke-width="1" opacity="1"/><line transform="translate(0,120)" x2="140" y2="0" stroke="#ddd" stroke-width="1" opacity="1"/><line transform="translate(0,90)" x2="140" y2="0" stroke="#ddd" stroke-width="1" opacity="1"/><line transform="translate(0,60)" x2="140" y2="0" stroke="#ddd" stroke-width="1" opacity="1"/><line transform="translate(0,30)" x2="140" y2="0" stroke="#ddd" stroke-width="1" opacity="1"/><line transform="translate(0,0)" x2="140" y2="0" stroke="#ddd" stroke-width="1" opacity="1"/></g></g><path class="foreground" aria-hidden="true" d="" pointer-events="none" display="none"/></g></g><g class="mark-rect role-mark child_marks" role="graphics-object" aria-roledescription="rect mark container"><path aria-label="reward: Terminal; value: 0.5601" role="graphics-symbol" aria-roledescription="bar" d="M1,131.97h18v168.03h-18Z" fill="#003f5c"/><path aria-label="reward: Retr. Term.; value: 0.7445" role="graphics-symbol" aria-roledescription="bar" d="M21,76.64999999999999h18v223.35000000000002h-18Z" fill="#374c80"/><path aria-label="reward: Embedding; value: 0.8626" role="graphics-symbol" aria-roledescription="bar" d="M41,41.21999999999999h18v258.78000000000003h-18Z" fill="#7a5195"/><path aria-label="reward: Distance; value: 0.8235" role="graphics-symbol" aria-roledescription="bar" d="M61,52.949999999999996h18v247.05h-18Z" fill="#bc5090"/><path aria-label="reward: Combined; value: 0.686" role="graphics-symbol" aria-roledescription="bar" d="M81,94.19999999999999h18v205.8h-18Z" fill="#ef5675"/><path aria-label="reward: PPO Dist.; value: 0.8626" role="graphics-symbol" aria-roledescription="bar" d="M101,41.21999999999999h18v258.78000000000003h-18Z" fill="#ff764a"/><path aria-label="reward: PPO. Embed.; value: 0.9029" role="graphics-symbol" aria-roledescription="bar" d="M121,29.12999999999999h18v270.87h-18Z" fill="#ffa600"/></g></g><path class="foreground" aria-hidden="true" d="" display="none"/></g><g transform="translate(162,0)"><path class="background" aria-hidden="true" d="M0.5,0.5h140v300h-140Z" stroke="#ddd"/><g><g class="mark-group role-axis" aria-hidden="true"><g transform="translate(0.5,0.5)"><path class="background" aria-hidden="true" d="M0,0h0v0h0Z" pointer-events="none"/><g><g class="mark-rule role-axis-grid" pointer-events="none"><line transform="translate(0,300)" x2="140" y2="0" stroke="#ddd" stroke-width="1" opacity="1"/><line transform="translate(0,270)" x2="140" y2="0" stroke="#ddd" stroke-width="1" opacity="1"/><line transform="translate(0,240)" x2="140" y2="0" stroke="#ddd" stroke-width="1" opacity="1"/><line transform="translate(0,210)" x2="140" y2="0" stroke="#ddd" stroke-width="1" opacity="1"/><line transform="translate(0,180)" x2="140" y2="0" stroke="#ddd" stroke-width="1" opacity="1"/><line transform="translate(0,150)" x2="140" y2="0" stroke="#ddd" stroke-width="1" opacity="1"/><line transform="translate(0,120)" x2="140" y2="0" stroke="#ddd" stroke-width="1" opacity="1"/><line transform="translate(0,90)" x2="140" y2="0" stroke="#ddd" stroke-width="1" opacity="1"/><line transform="translate(0,60)" x2="140" y2="0" stroke="#ddd" stroke-width="1" opacity="1"/><line transform="translate(0,30)" x2="140" y2="0" stroke="#ddd" stroke-width="1" opacity="1"/><line transform="translate(0,0)" x2="140" y2="0" stroke="#ddd" stroke-width="1" opacity="1"/></g></g><path class="foreground" aria-hidden="true" d="" pointer-events="none" display="none"/></g></g><g class="mark-rect role-mark child_marks" role="graphics-object" aria-roledescription="rect mark container"><path aria-label="reward: Terminal; value: 0.355" role="graphics-symbol" aria-roledescription="bar" d="M1,193.5h18v106.5h-18Z" fill="#003f5c"/><path aria-label="reward: Retr. Term.; value: 0.568" role="graphics-symbol" aria-roledescription="bar" d="M21,129.60000000000002h18v170.39999999999998h-18Z" fill="#374c80"/><path aria-label="reward: Embedding; value: 0.758" role="graphics-symbol" aria-roledescription="bar" d="M41,72.6h18v227.4h-18Z" fill="#7a5195"/><path aria-label="reward: Distance; value: 0.682" role="graphics-symbol" aria-roledescription="bar" d="M61,95.39999999999999h18v204.60000000000002h-18Z" fill="#bc5090"/><path aria-label="reward: Combined; value: 0.592" role="graphics-symbol" aria-roledescription="bar" d="M81,122.4h18v177.6h-18Z" fill="#ef5675"/><path aria-label="reward: PPO Dist.; value: 0.792" role="graphics-symbol" aria-roledescription="bar" d="M101,62.39999999999999h18v237.60000000000002h-18Z" fill="#ff764a"/><path aria-label="reward: PPO. Embed.; value: 0.83" role="graphics-symbol" aria-roledescription="bar" d="M121,51.000000000000014h18v249h-18Z" fill="#ffa600"/></g></g><path class="foreground" aria-hidden="true" d="" display="none"/></g><g transform="translate(324,0)"><path class="background" aria-hidden="true" d="M0.5,0.5h140v300h-140Z" stroke="#ddd"/><g><g class="mark-group role-axis" aria-hidden="true"><g transform="translate(0.5,0.5)"><path class="background" aria-hidden="true" d="M0,0h0v0h0Z" pointer-events="none"/><g><g class="mark-rule role-axis-grid" pointer-events="none"><line transform="translate(0,300)" x2="140" y2="0" stroke="#ddd" stroke-width="1" opacity="1"/><line transform="translate(0,270)" x2="140" y2="0" stroke="#ddd" stroke-width="1" opacity="1"/><line transform="translate(0,240)" x2="140" y2="0" stroke="#ddd" stroke-width="1" opacity="1"/><line transform="translate(0,210)" x2="140" y2="0" stroke="#ddd" stroke-width="1" opacity="1"/><line transform="translate(0,180)" x2="140" y2="0" stroke="#ddd" stroke-width="1" opacity="1"/><line transform="translate(0,150)" x2="140" y2="0" stroke="#ddd" stroke-width="1" opacity="1"/><line transform="translate(0,120)" x2="140" y2="0" stroke="#ddd" stroke-width="1" opacity="1"/><line transform="translate(0,90)" x2="140" y2="0" stroke="#ddd" stroke-width="1" opacity="1"/><line transform="translate(0,60)" x2="140" y2="0" stroke="#ddd" stroke-width="1" opacity="1"/><line transform="translate(0,30)" x2="140" y2="0" stroke="#ddd" stroke-width="1" opacity="1"/><line transform="translate(0,0)" x2="140" y2="0" stroke="#ddd" stroke-width="1" opacity="1"/></g></g><path class="foreground" aria-hidden="true" d="" pointer-events="none" display="none"/></g></g><g class="mark-rect role-mark child_marks" role="graphics-object" aria-roledescription="rect mark container"><path aria-label="reward: Terminal; value: 0.732" role="graphics-symbol" aria-roledescription="bar" d="M1,80.4h18v219.6h-18Z" fill="#003f5c"/><path aria-label="reward: Retr. Term.; value: 0.912" role="graphics-symbol" aria-roledescription="bar" d="M21,26.39999999999999h18v273.6h-18Z" fill="#374c80"/><path aria-label="reward: Embedding; value: 0.982" role="graphics-symbol" aria-roledescription="bar" d="M41,5.400000000000005h18v294.6h-18Z" fill="#7a5195"/><path aria-label="reward: Distance; value: 0.974" role="graphics-symbol" aria-roledescription="bar" d="M61,7.800000000000007h18v292.2h-18Z" fill="#bc5090"/><path aria-label="reward: Combined; value: 0.86" role="graphics-symbol" aria-roledescription="bar" d="M81,42.00000000000001h18v258h-18Z" fill="#ef5675"/><path aria-label="reward: PPO Dist.; value: 0.965" role="graphics-symbol" aria-roledescription="bar" d="M101,10.500000000000009h18v289.5h-18Z" fill="#ff764a"/><path aria-label="reward: PPO. Embed.; value: 0.989" role="graphics-symbol" aria-roledescription="bar" d="M121,3.300000000000003h18v296.7h-18Z" fill="#ffa600"/></g></g><path class="foreground" aria-hidden="true" d="" display="none"/></g><g transform="translate(486,0)"><path class="background" aria-hidden="true" d="M0.5,0.5h140v300h-140Z" stroke="#ddd"/><g><g class="mark-group role-axis" aria-hidden="true"><g transform="translate(0.5,0.5)"><path class="background" aria-hidden="true" d="M0,0h0v0h0Z" pointer-events="none"/><g><g class="mark-rule role-axis-grid" pointer-events="none"><line transform="translate(0,300)" x2="140" y2="0" stroke="#ddd" stroke-width="1" opacity="1"/><line transform="translate(0,270)" x2="140" y2="0" stroke="#ddd" stroke-width="1" opacity="1"/><line transform="translate(0,240)" x2="140" y2="0" stroke="#ddd" stroke-width="1" opacity="1"/><line transform="translate(0,210)" x2="140" y2="0" stroke="#ddd" stroke-width="1" opacity="1"/><line transform="translate(0,180)" x2="140" y2="0" stroke="#ddd" stroke-width="1" opacity="1"/><line transform="translate(0,150)" x2="140" y2="0" stroke="#ddd" stroke-width="1" opacity="1"/><line transform="translate(0,120)" x2="140" y2="0" stroke="#ddd" stroke-width="1" opacity="1"/><line transform="translate(0,90)" x2="140" y2="0" stroke="#ddd" stroke-width="1" opacity="1"/><line transform="translate(0,60)" x2="140" y2="0" stroke="#ddd" stroke-width="1" opacity="1"/><line transform="translate(0,30)" x2="140" y2="0" stroke="#ddd" stroke-width="1" opacity="1"/><line transform="translate(0,0)" x2="140" y2="0" stroke="#ddd" stroke-width="1" opacity="1"/></g></g><path class="foreground" aria-hidden="true" d="" pointer-events="none" display="none"/></g></g><g class="mark-rect role-mark child_marks" role="graphics-object" aria-roledescription="rect mark container"><path aria-label="reward: Terminal; value: 0.892" role="graphics-symbol" aria-roledescription="bar" d="M1,32.4h18v267.6h-18Z" fill="#003f5c"/><path aria-label="reward: Retr. Term.; value: 0.984" role="graphics-symbol" aria-roledescription="bar" d="M21,4.800000000000004h18v295.2h-18Z" fill="#374c80"/><path aria-label="reward: Embedding; value: 0.998" role="graphics-symbol" aria-roledescription="bar" d="M41,0.6000000000000005h18v299.4h-18Z" fill="#7a5195"/><path aria-label="reward: Distance; value: 1" role="graphics-symbol" aria-roledescription="bar" d="M61,0h18v300h-18Z" fill="#bc5090"/><path aria-label="reward: Combined; value: 0.956" role="graphics-symbol" aria-roledescription="bar" d="M81,13.200000000000012h18v286.8h-18Z" fill="#ef5675"/><path aria-label="reward: PPO Dist.; value: 1" role="graphics-symbol" aria-roledescription="bar" d="M101,0h18v300h-18Z" fill="#ff764a"/><path aria-label="reward: PPO. Embed.; value: 1" role="graphics-symbol" aria-roledescription="bar" d="M121,0h18v300h-18Z" fill="#ffa600"/></g></g><path class="foreground" aria-hidden="true" d="" display="none"/></g><g transform="translate(648,0)"><path class="background" aria-hidden="true" d="M0.5,0.5h140v300h-140Z" stroke="#ddd"/><g><g class="mark-group role-axis" aria-hidden="true"><g transform="translate(0.5,0.5)"><path class="background" aria-hidden="true" d="M0,0h0v0h0Z" pointer-events="none"/><g><g class="mark-rule role-axis-grid" pointer-events="none"><line transform="translate(0,300)" x2="140" y2="0" stroke="#ddd" stroke-width="1" opacity="1"/><line transform="translate(0,270)" x2="140" y2="0" stroke="#ddd" stroke-width="1" opacity="1"/><line transform="translate(0,240)" x2="140" y2="0" stroke="#ddd" stroke-width="1" opacity="1"/><line transform="translate(0,210)" x2="140" y2="0" stroke="#ddd" stroke-width="1" opacity="1"/><line transform="translate(0,180)" x2="140" y2="0" stroke="#ddd" stroke-width="1" opacity="1"/><line transform="translate(0,150)" x2="140" y2="0" stroke="#ddd" stroke-width="1" opacity="1"/><line transform="translate(0,120)" x2="140" y2="0" stroke="#ddd" stroke-width="1" opacity="1"/><line transform="translate(0,90)" x2="140" y2="0" stroke="#ddd" stroke-width="1" opacity="1"/><line transform="translate(0,60)" x2="140" y2="0" stroke="#ddd" stroke-width="1" opacity="1"/><line transform="translate(0,30)" x2="140" y2="0" stroke="#ddd" stroke-width="1" opacity="1"/><line transform="translate(0,0)" x2="140" y2="0" stroke="#ddd" stroke-width="1" opacity="1"/></g></g><path class="foreground" aria-hidden="true" d="" pointer-events="none" display="none"/></g></g><g class="mark-rect role-mark child_marks" role="graphics-object" aria-roledescription="rect mark container"><path aria-label="reward: Terminal; value: 0.988" role="graphics-symbol" aria-roledescription="bar" d="M1,3.600000000000003h18v296.4h-18Z" fill="#003f5c"/><path aria-label="reward: Retr. Term.; value: 1" role="graphics-symbol" aria-roledescription="bar" d="M21,0h18v300h-18Z" fill="#374c80"/><path aria-label="reward: Embedding; value: 1" role="graphics-symbol" aria-roledescription="bar" d="M41,0h18v300h-18Z" fill="#7a5195"/><path aria-label="reward: Distance; value: 1" role="graphics-symbol" aria-roledescription="bar" d="M61,0h18v300h-18Z" fill="#bc5090"/><path aria-label="reward: Combined; value: 1" role="graphics-symbol" aria-roledescription="bar" d="M81,0h18v300h-18Z" fill="#ef5675"/><path aria-label="reward: PPO Dist.; value: 1" role="graphics-symbol" aria-roledescription="bar" d="M101,0h18v300h-18Z" fill="#ff764a"/><path aria-label="reward: PPO. Embed.; value: 1" role="graphics-symbol" aria-roledescription="bar" d="M121,0h18v300h-18Z" fill="#ffa600"/></g></g><path class="foreground" aria-hidden="true" d="" display="none"/></g></g></g><path class="foreground" aria-hidden="true" d="" display="none"/></g></g></g></svg>