<svg xmlns="http://www.w3.org/2000/svg" xmlns:xlink="http://www.w3.org/1999/xlink" version="1.1" class="marks" width="156" height="503" viewBox="0 0 156 503"><rect width="156" height="503" fill="white"/><g fill="none" stroke-miterlimit="10" transform="translate(51,13)"><g class="mark-group role-frame root" role="graphics-object" aria-roledescription="group mark container"><g transform="translate(0,0)"><path class="background" aria-hidden="true" d="M0.5,0.5h100v300h-100Z" stroke="#ddd"/><g><g class="mark-group role-axis" aria-hidden="true"><g transform="translate(0.5,0.5)"><path class="background" aria-hidden="true" d="M0,0h0v0h0Z" pointer-events="none"/><g><g class="mark-rule role-axis-grid" pointer-events="none"><line transform="translate(0,300)" x2="100" y2="0" stroke="#ddd" stroke-width="1" opacity="1"/><line transform="translate(0,210)" x2="100" y2="0" stroke="#ddd" stroke-width="1" opacity="1"/><line transform="translate(0,157)" x2="100" y2="0" stroke="#ddd" stroke-width="1" opacity="1"/><line transform="translate(0,119)" x2="100" y2="0" stroke="#ddd" stroke-width="1" opacity="1"/><line transform="translate(0,90)" x2="100" y2="0" stroke="#ddd" stroke-width="1" opacity="1"/><line transform="translate(0,67)" x2="100" y2="0" stroke="#ddd" stroke-width="1" opacity="1"/><line transform="translate(0,46)" x2="100" y2="0" stroke="#ddd" stroke-width="1" opacity="1"/><line transform="translate(0,29)" x2="100" y2="0" stroke="#ddd" stroke-width="1" opacity="1"/><line transform="translate(0,14)" x2="100" y2="0" stroke="#ddd" stroke-width="1" opacity="1"/><line transform="translate(0,0)" x2="100" y2="0" stroke="#ddd" stroke-width="1" opacity="1"/></g></g><path class="foreground" aria-hidden="true" d="" pointer-events="none" display="none"/></g></g><g class="mark-group role-axis" role="graphics-symbol" aria-roledescription="axis" aria-label="X-axis titled 'rel name' for a discrete scale with 5 values: similar_to, verb_group, also_see, derivationally_related_from, GENERIC"><g transform="translate(0.5,300.5)"><path class="background" aria-hidden="true" d="M0,0h0v0h0Z" pointer-events="none"/><g><g class="mark-rule role-axis-tick" pointer-events="none"><line transform="translate(10,0)" x2="0" y2="5" stroke="#888" stroke-width="1" opacity="1"/><line transform="translate(30,0)" x2="0" y2="5" stroke="#888" stroke-width="1" opacity="1"/><line transform="translate(50,0)" x2="0" y2="5" stroke="#888" stroke-width="1" opacity="1"/><line transform="translate(70,0)" x2="0" y2="5" stroke="#888" stroke-width="1" opacity="1"/><line transform="translate(90,0)" x2="0" y2="5" stroke="#888" stroke-width="1" opacity="1"/></g><g class="mark-text role-axis-label" pointer-events="none"><text text-anchor="end" transform="translate(9.5,7) rotate(270) translate(0,5)" font-family="arial narrow" font-size="16px" fill="#000" opacity="1">similar_to</text><text text-anchor="end" transform="translate(29.5,7) rotate(270) translate(0,5)" font-family="arial narrow" font-size="16px" fill="#000" opacity="1">verb_group</text><text text-anchor="end" transform="translate(49.5,7) rotate(270) translate(0,5)" font-family="arial narrow" font-size="16px" fill="#000" opacity="1">also_see</text><text text-anchor="end" transform="translate(69.5,7) rotate(270) translate(0,5)" font-family="arial narrow" font-size="16px" fill="#000" opacity="1">derivationally_related_from</text><text text-anchor="end" transform="translate(89.5,7) rotate(270) translate(0,5)" font-family="arial narrow" font-size="16px" fill="#000" opacity="1">GENERIC</text></g><g class="mark-rule role-axis-domain" pointer-events="none"><line transform="translate(0,0)" x2="100" y2="0" stroke="#888" stroke-width="1" opacity="1"/></g><g class="mark-text role-axis-title" pointer-events="none"><text text-anchor="middle" transform="translate(50,181.53125)" font-family="arial narrow" font-size="16px" font-weight="bold" fill="#000" opacity="1">rel name</text></g></g><path class="foreground" aria-hidden="true" d="" pointer-events="none" display="none"/></g></g><g class="mark-group role-axis" role="graphics-symbol" aria-roledescription="axis" aria-label="Y-axis titled 'MRR, regression' for a log scale with values from 0.1 to 1"><g transform="translate(0.5,0.5)"><path class="background" aria-hidden="true" d="M0,0h0v0h0Z" pointer-events="none"/><g><g class="mark-rule role-axis-tick" pointer-events="none"><line transform="translate(0,300)" x2="-5" y2="0" stroke="#888" stroke-width="1" opacity="1"/><line transform="translate(0,210)" x2="-5" y2="0" stroke="#888" stroke-width="1" opacity="1"/><line transform="translate(0,157)" x2="-5" y2="0" stroke="#888" stroke-width="1" opacity="1"/><line transform="translate(0,119)" x2="-5" y2="0" stroke="#888" stroke-width="1" opacity="1"/><line transform="translate(0,90)" x2="-5" y2="0" stroke="#888" stroke-width="1" opacity="1"/><line transform="translate(0,67)" x2="-5" y2="0" stroke="#888" stroke-width="1" opacity="1"/><line transform="translate(0,46)" x2="-5" y2="0" stroke="#888" stroke-width="1" opacity="1"/><line transform="translate(0,29)" x2="-5" y2="0" stroke="#888" stroke-width="1" opacity="1"/><line transform="translate(0,14)" x2="-5" y2="0" stroke="#888" stroke-width="1" opacity="1"/><line transform="translate(0,0)" x2="-5" y2="0" stroke="#888" stroke-width="1" opacity="1"/></g><g class="mark-text role-axis-label" pointer-events="none"><text text-anchor="end" transform="translate(-7,305)" font-family="arial narrow" font-size="16px" fill="#000" opacity="1">0.1</text><text text-anchor="end" transform="translate(-7,214.69100130080565)" font-family="arial narrow" font-size="16px" fill="#000" opacity="1">0.2</text><text text-anchor="end" transform="translate(-7,161.86362358410128)" font-family="arial narrow" font-size="16px" fill="#000" opacity="1">0.3</text><text text-anchor="end" transform="translate(-7,124.38200260161132)" font-family="arial narrow" font-size="16px" fill="#000" opacity="1">0.4</text><text text-anchor="end" transform="translate(-7,95.30899869919438)" font-family="arial narrow" font-size="16px" fill="#000" opacity="1">0.5</text><text text-anchor="end" transform="translate(-7,71.55462488490691)" font-family="arial narrow" font-size="16px" fill="#000" opacity="1">0.6</text><text text-anchor="end" transform="translate(-7,51.47058799572296)" font-family="arial narrow" font-size="16px" fill="#000" opacity="1">0.7</text><text text-anchor="end" transform="translate(-7,34.0730039024169)" font-family="arial narrow" font-size="16px" fill="#000" opacity="1">0.8</text><text text-anchor="end" transform="translate(-7,18.72724716820254)" font-family="arial narrow" font-size="16px" fill="#000" opacity="0">0.9</text><text text-anchor="end" transform="translate(-7,5)" font-family="arial narrow" font-size="16px" fill="#000" opacity="1">1</text></g><g class="mark-rule role-axis-domain" pointer-events="none"><line transform="translate(0,300)" x2="0" y2="-300" stroke="#888" stroke-width="1" opacity="1"/></g><g class="mark-text role-axis-title" pointer-events="none"><text text-anchor="middle" transform="translate(-29.2421875,150) rotate(-90) translate(0,-3)" font-family="arial narrow" font-size="16px" font-weight="bold" fill="#000" opacity="1">MRR, regression</text></g></g><path class="foreground" aria-hidden="true" d="" pointer-events="none" display="none"/></g></g><g class="mark-rect role-mark layer_0_marks" role="graphics-object" aria-roledescription="rect mark container"><path aria-label="rel name: similar_to; MRR: 0.909846667" role="graphics-symbol" aria-roledescription="bar" d="M1,12.309537453133302h18v287.6904625468667h-18Z" fill="#003f5c"/><path aria-label="rel name: verb_group; MRR: 0.771853889" role="graphics-symbol" aria-roledescription="bar" d="M21,33.73947098995115h18v266.26052901004886h-18Z" fill="#374c80"/><path aria-label="rel name: also_see; MRR: 0.745857619" role="graphics-symbol" aria-roledescription="bar" d="M41,38.20322086716587h18v261.7967791328341h-18Z" fill="#7a5195"/><path aria-label="rel name: derivationally_related_from; MRR: 0.637527063" role="graphics-symbol" aria-roledescription="bar" d="M61,58.65041241545092h18v241.34958758454908h-18Z" fill="#bc5090"/><path aria-label="rel name: GENERIC; MRR: 0.443105317" role="graphics-symbol" aria-roledescription="bar" d="M81,106.04791159856923h18v193.95208840143079h-18Z" fill="#ef5675"/></g><g class="mark-line role-mark layer_1_layer_0_marks" role="graphics-object" aria-roledescription="line mark container"><path aria-label="rel name: similar_to; regression: 0.9152000162" role="graphics-symbol" aria-roledescription="line mark" d="M10,11.545L30,27.709L50,46.166L70,67.676L90,93.454" stroke="red" stroke-width="2"/></g><g class="mark-symbol role-mark layer_1_layer_1_marks" role="graphics-object" aria-roledescription="symbol mark container"><path aria-label="rel name: similar_to; regression: 0.9152000162" role="graphics-symbol" aria-roledescription="point" transform="translate(10,11.545194259074954)" d="M2.739,0A2.739,2.739,0,1,1,-2.739,0A2.739,2.739,0,1,1,2.739,0" fill="#4c78a8" stroke-width="2" opacity="1"/><path aria-label="rel name: verb_group; regression: 0.8084190636" role="graphics-symbol" aria-roledescription="point" transform="translate(30,27.709036137816646)" d="M2.739,0A2.739,2.739,0,1,1,-2.739,0A2.739,2.739,0,1,1,2.739,0" fill="#4c78a8" stroke-width="2" opacity="1"/><path aria-label="rel name: also_see; regression: 0.701638111" role="graphics-symbol" aria-roledescription="point" transform="translate(50,46.166048805598315)" d="M2.739,0A2.739,2.739,0,1,1,-2.739,0A2.739,2.739,0,1,1,2.739,0" fill="#4c78a8" stroke-width="2" opacity="1"/><path aria-label="rel name: derivationally_related_from; regression: 0.5948571584" role="graphics-symbol" aria-roledescription="point" transform="translate(70,67.67619234845954)" d="M2.739,0A2.739,2.739,0,1,1,-2.739,0A2.739,2.739,0,1,1,2.739,0" fill="#4c78a8" stroke-width="2" opacity="1"/><path aria-label="rel name: GENERIC; regression: 0.4880762058" role="graphics-symbol" aria-roledescription="point" transform="translate(90,93.45370923447946)" d="M2.739,0A2.739,2.739,0,1,1,-2.739,0A2.739,2.739,0,1,1,2.739,0" fill="#4c78a8" stroke-width="2" opacity="1"/></g></g><path class="foreground" aria-hidden="true" d="" display="none"/></g></g></g></svg>