<svg xmlns="http://www.w3.org/2000/svg" xmlns:xlink="http://www.w3.org/1999/xlink" version="1.1" class="marks" width="248" height="305" viewBox="0 0 248 305"><rect width="248" height="305" fill="white"/><g fill="none" stroke-miterlimit="10" transform="translate(43,11)"><g class="mark-group role-frame root" role="graphics-object" aria-roledescription="group mark container"><g transform="translate(0,0)"><path class="background" aria-hidden="true" d="M0.5,0.5h200v200h-200Z" stroke="#ddd"/><g><g class="mark-group role-axis" aria-hidden="true"><g transform="translate(0.5,0.5)"><path class="background" aria-hidden="true" d="M0,0h0v0h0Z" pointer-events="none"/><g><g class="mark-rule role-axis-grid" pointer-events="none"><line transform="translate(0,200)" x2="200" y2="0" stroke="#ddd" stroke-width="1" opacity="1"/><line transform="translate(0,167)" x2="200" y2="0" stroke="#ddd" stroke-width="1" opacity="1"/><line transform="translate(0,133)" x2="200" y2="0" stroke="#ddd" stroke-width="1" opacity="1"/><line transform="translate(0,100)" x2="200" y2="0" stroke="#ddd" stroke-width="1" opacity="1"/><line transform="translate(0,67)" x2="200" y2="0" stroke="#ddd" stroke-width="1" opacity="1"/><line transform="translate(0,33)" x2="200" y2="0" stroke="#ddd" stroke-width="1" opacity="1"/><line transform="translate(0,0)" x2="200" y2="0" stroke="#ddd" stroke-width="1" opacity="1"/></g></g><path class="foreground" aria-hidden="true" d="" pointer-events="none" display="none"/></g></g><g class="mark-group role-axis" role="graphics-symbol" aria-roledescription="axis" aria-label="X-axis titled 'similar_to (80) verb_group (1138) also_see (1299) deriv_rel_from (29715) GENERIC (80798)' for a discrete scale with 5 values: 80, 1138, 1299, 29715, 80798"><g transform="translate(0.5,200.5)"><path class="background" aria-hidden="true" d="M0,0h0v0h0Z" pointer-events="none"/><g><g class="mark-rule role-axis-tick" pointer-events="none"><line transform="translate(20,0)" x2="0" y2="5" stroke="#888" stroke-width="1" opacity="1"/><line transform="translate(60,0)" x2="0" y2="5" stroke="#888" stroke-width="1" opacity="1"/><line transform="translate(100,0)" x2="0" y2="5" stroke="#888" stroke-width="1" opacity="1"/><line transform="translate(140,0)" x2="0" y2="5" stroke="#888" stroke-width="1" opacity="1"/><line transform="translate(180,0)" x2="0" y2="5" stroke="#888" stroke-width="1" opacity="1"/></g><g class="mark-text role-axis-label" pointer-events="none"><text text-anchor="middle" transform="translate(20,16)" font-family="arial narrow" font-size="16px" fill="#000" opacity="1">80</text><text text-anchor="middle" transform="translate(60,16)" font-family="arial narrow" font-size="16px" fill="#000" opacity="1">1138</text><text text-anchor="middle" transform="translate(100,16)" font-family="arial narrow" font-size="16px" fill="#000" opacity="1">1299</text><text text-anchor="middle" transform="translate(140,16)" font-family="arial narrow" font-size="16px" fill="#000" opacity="1">29715</text><text text-anchor="middle" transform="translate(180,16)" font-family="arial narrow" font-size="16px" fill="#000" opacity="1">80798</text></g><g class="mark-rule role-axis-domain" pointer-events="none"><line transform="translate(0,0)" x2="200" y2="0" stroke="#888" stroke-width="1" opacity="1"/></g><g class="mark-text role-axis-title" pointer-events="none"><text text-anchor="middle" transform="translate(100,31)" font-family="arial narrow" font-size="16px" font-weight="bold" fill="#000" opacity="1"><tspan>similar_to (80)</tspan><tspan x="0" dy="14">verb_group (1138)</tspan><tspan x="0" dy="14">also_see (1299)</tspan><tspan x="0" dy="14">deriv_rel_from (29715)</tspan><tspan x="0" dy="14">GENERIC (80798)</tspan></text></g></g><path class="foreground" aria-hidden="true" d="" pointer-events="none" display="none"/></g></g><g class="mark-group role-axis" role="graphics-symbol" aria-roledescription="axis" aria-label="Y-axis titled 'MRR' for a linear scale with values from 0.4 to 1.0"><g transform="translate(0.5,0.5)"><path class="background" aria-hidden="true" d="M0,0h0v0h0Z" pointer-events="none"/><g><g class="mark-rule role-axis-tick" pointer-events="none"><line transform="translate(0,200)" x2="-5" y2="0" stroke="#888" stroke-width="1" opacity="1"/><line transform="translate(0,167)" x2="-5" y2="0" stroke="#888" stroke-width="1" opacity="1"/><line transform="translate(0,133)" x2="-5" y2="0" stroke="#888" stroke-width="1" opacity="1"/><line transform="translate(0,100)" x2="-5" y2="0" stroke="#888" stroke-width="1" opacity="1"/><line transform="translate(0,67)" x2="-5" y2="0" stroke="#888" stroke-width="1" opacity="1"/><line transform="translate(0,33)" x2="-5" y2="0" stroke="#888" stroke-width="1" opacity="1"/><line transform="translate(0,0)" x2="-5" y2="0" stroke="#888" stroke-width="1" opacity="1"/></g><g class="mark-text role-axis-label" pointer-events="none"><text text-anchor="end" transform="translate(-7,204)" font-family="arial narrow" font-size="16px" fill="#000" opacity="1">0.4</text><text text-anchor="end" transform="translate(-7,170.66666666666669)" font-family="arial narrow" font-size="16px" fill="#000" opacity="1">0.5</text><text text-anchor="end" transform="translate(-7,137.33333333333334)" font-family="arial narrow" font-size="16px" fill="#000" opacity="1">0.6</text><text text-anchor="end" transform="translate(-7,104.00000000000003)" font-family="arial narrow" font-size="16px" fill="#000" opacity="1">0.7</text><text text-anchor="end" transform="translate(-7,70.66666666666666)" font-family="arial narrow" font-size="16px" fill="#000" opacity="1">0.8</text><text text-anchor="end" transform="translate(-7,37.33333333333333)" font-family="arial narrow" font-size="16px" fill="#000" opacity="1">0.9</text><text text-anchor="end" transform="translate(-7,4)" font-family="arial narrow" font-size="16px" fill="#000" opacity="1">1.0</text></g><g class="mark-rule role-axis-domain" pointer-events="none"><line transform="translate(0,200)" x2="0" y2="-200" stroke="#888" stroke-width="1" opacity="1"/></g><g class="mark-text role-axis-title" pointer-events="none"><text text-anchor="middle" transform="translate(-24.681640625,100) rotate(-90) translate(0,-3)" font-family="arial narrow" font-size="16px" font-weight="bold" fill="#000" opacity="1">MRR</text></g></g><path class="foreground" aria-hidden="true" d="" pointer-events="none" display="none"/></g></g><g class="mark-line role-mark layer_0_marks" role="graphics-object" aria-roledescription="line mark container"><path aria-label="rel#: 80; MRR: 0.909846667" role="graphics-symbol" aria-roledescription="line mark" d="M20,30.051L60,76.049L100,84.714L140,120.824L180,185.632" stroke="#4c78a8" stroke-width="2"/></g><g class="mark-symbol role-mark layer_1_marks" role="graphics-object" aria-roledescription="symbol mark container"><path aria-label="rel#: 80; MRR: 0.909846667" role="graphics-symbol" aria-roledescription="point" transform="translate(20,30.051110999999974)" d="M2.739,0A2.739,2.739,0,1,1,-2.739,0A2.739,2.739,0,1,1,2.739,0" fill="#4c78a8" stroke-width="2" opacity="1"/><path aria-label="rel#: 1138; MRR: 0.771853889" role="graphics-symbol" aria-roledescription="point" transform="translate(60,76.04870366666667)" d="M2.739,0A2.739,2.739,0,1,1,-2.739,0A2.739,2.739,0,1,1,2.739,0" fill="#4c78a8" stroke-width="2" opacity="1"/><path aria-label="rel#: 1299; MRR: 0.745857619" role="graphics-symbol" aria-roledescription="point" transform="translate(100,84.71412699999999)" d="M2.739,0A2.739,2.739,0,1,1,-2.739,0A2.739,2.739,0,1,1,2.739,0" fill="#4c78a8" stroke-width="2" opacity="1"/><path aria-label="rel#: 29715; MRR: 0.637527063" role="graphics-symbol" aria-roledescription="point" transform="translate(140,120.82431233333335)" d="M2.739,0A2.739,2.739,0,1,1,-2.739,0A2.739,2.739,0,1,1,2.739,0" fill="#4c78a8" stroke-width="2" opacity="1"/><path aria-label="rel#: 80798; MRR: 0.443105317" role="graphics-symbol" aria-roledescription="point" transform="translate(180,185.631561)" d="M2.739,0A2.739,2.739,0,1,1,-2.739,0A2.739,2.739,0,1,1,2.739,0" fill="#4c78a8" stroke-width="2" opacity="1"/></g></g><path class="foreground" aria-hidden="true" d="" display="none"/></g></g></g></svg>