<svg xmlns="http://www.w3.org/2000/svg" xmlns:xlink="http://www.w3.org/1999/xlink" version="1.1" class="marks" width="521" height="460" viewBox="0 0 521 460"><rect width="521" height="460" fill="white"/><g fill="none" stroke-miterlimit="10" transform="translate(27,57)"><g class="mark-group role-frame root" role="graphics-object" aria-roledescription="group mark container"><g transform="translate(0,0)"><path class="background" aria-hidden="true" d="M0,0h0v0h0Z"/><g><g class="mark-group role-column-title column-title" role="graphics-object" aria-roledescription="group mark container"><g transform="translate(244,-31)"><path class="background" aria-hidden="true" d="M0,0h0v0h0Z"/><g><g class="mark-group role-title"><g transform="translate(0,-21)"><path class="background" aria-hidden="true" d="M0,0h0v0h0Z" pointer-events="none"/><g><g class="mark-text role-title-text" role="graphics-symbol" aria-roledescription="title" aria-label="Title text 'metric'" pointer-events="none"><text text-anchor="middle" transform="translate(0,9)" font-family="arial narrow" font-size="16px" font-weight="bold" fill="#000" opacity="1">metric</text></g></g><path class="foreground" aria-hidden="true" d="" pointer-events="none" display="none"/></g></g></g><path class="foreground" aria-hidden="true" d="" display="none"/></g></g><g class="mark-group role-row-header row_header" role="graphics-object" aria-roledescription="group mark container"><g transform="translate(-1,0)"><path class="background" aria-hidden="true" d="M0,0h0v300h0Z"/><g><g class="mark-group role-axis" role="graphics-symbol" aria-roledescription="axis" aria-label="Y-axis for a linear scale with values from 0.0 to 1.0"><g transform="translate(0.5,0.5)"><path class="background" aria-hidden="true" d="M0,0h0v0h0Z" pointer-events="none"/><g><g class="mark-rule role-axis-tick" pointer-events="none"><line transform="translate(0,300)" x2="-5" y2="0" stroke="#888" stroke-width="1" opacity="1"/><line transform="translate(0,270)" x2="-5" y2="0" stroke="#888" stroke-width="1" opacity="1"/><line transform="translate(0,240)" x2="-5" y2="0" stroke="#888" stroke-width="1" opacity="1"/><line transform="translate(0,210)" x2="-5" y2="0" stroke="#888" stroke-width="1" opacity="1"/><line transform="translate(0,180)" x2="-5" y2="0" stroke="#888" stroke-width="1" opacity="1"/><line transform="translate(0,150)" x2="-5" y2="0" stroke="#888" stroke-width="1" opacity="1"/><line transform="translate(0,120)" x2="-5" y2="0" stroke="#888" stroke-width="1" opacity="1"/><line transform="translate(0,90)" x2="-5" y2="0" stroke="#888" stroke-width="1" opacity="1"/><line transform="translate(0,60)" x2="-5" y2="0" stroke="#888" stroke-width="1" opacity="1"/><line transform="translate(0,30)" x2="-5" y2="0" stroke="#888" stroke-width="1" opacity="1"/><line transform="translate(0,0)" x2="-5" y2="0" stroke="#888" stroke-width="1" opacity="1"/></g><g class="mark-text role-axis-label" pointer-events="none"><text text-anchor="end" transform="translate(-7,304)" font-family="arial narrow" font-size="16px" fill="#000" opacity="1">0.0</text><text text-anchor="end" transform="translate(-7,274)" font-family="arial narrow" font-size="16px" fill="#000" opacity="1">0.1</text><text text-anchor="end" transform="translate(-7,244)" font-family="arial narrow" font-size="16px" fill="#000" opacity="1">0.2</text><text text-anchor="end" transform="translate(-7,214)" font-family="arial narrow" font-size="16px" fill="#000" opacity="1">0.3</text><text text-anchor="end" transform="translate(-7,184)" font-family="arial narrow" font-size="16px" fill="#000" opacity="1">0.4</text><text text-anchor="end" transform="translate(-7,154)" font-family="arial narrow" font-size="16px" fill="#000" opacity="1">0.5</text><text text-anchor="end" transform="translate(-7,124)" font-family="arial narrow" font-size="16px" fill="#000" opacity="1">0.6</text><text text-anchor="end" transform="translate(-7,94.00000000000001)" font-family="arial narrow" font-size="16px" fill="#000" opacity="1">0.7</text><text text-anchor="end" transform="translate(-7,63.999999999999986)" font-family="arial narrow" font-size="16px" fill="#000" opacity="1">0.8</text><text text-anchor="end" transform="translate(-7,33.99999999999999)" font-family="arial narrow" font-size="16px" fill="#000" opacity="1">0.9</text><text text-anchor="end" transform="translate(-7,4)" font-family="arial narrow" font-size="16px" fill="#000" opacity="1">1.0</text></g><g class="mark-rule role-axis-domain" pointer-events="none"><line transform="translate(0,300)" x2="0" y2="-300" stroke="#888" stroke-width="1" opacity="1"/></g></g><path class="foreground" aria-hidden="true" d="" pointer-events="none" display="none"/></g></g></g><path class="foreground" aria-hidden="true" d="" display="none"/></g></g><g class="mark-group role-column-header column_header" role="graphics-object" aria-roledescription="group mark container"><g transform="translate(0,-1)"><path class="background" aria-hidden="true" d="M0,0h80v0h-80Z"/><g><g class="mark-group role-title"><g transform="translate(40,-20)"><path class="background" aria-hidden="true" d="M0,0h0v0h0Z" pointer-events="none"/><g><g class="mark-text role-title-text" role="graphics-symbol" aria-roledescription="title" aria-label="Title text 'MRR'" pointer-events="none"><text text-anchor="middle" transform="translate(0,8)" font-family="arial narrow" font-size="16px" fill="#000" opacity="1">MRR</text></g></g><path class="foreground" aria-hidden="true" d="" pointer-events="none" display="none"/></g></g></g><path class="foreground" aria-hidden="true" d="" display="none"/></g><g transform="translate(102,-1)"><path class="background" aria-hidden="true" d="M0,0h80v0h-80Z"/><g><g class="mark-group role-title"><g transform="translate(40,-20)"><path class="background" aria-hidden="true" d="M0,0h0v0h0Z" pointer-events="none"/><g><g class="mark-text role-title-text" role="graphics-symbol" aria-roledescription="title" aria-label="Title text 'hits@01'" pointer-events="none"><text text-anchor="middle" transform="translate(0,8)" font-family="arial narrow" font-size="16px" fill="#000" opacity="1">hits@01</text></g></g><path class="foreground" aria-hidden="true" d="" pointer-events="none" display="none"/></g></g></g><path class="foreground" aria-hidden="true" d="" display="none"/></g><g transform="translate(204,-1)"><path class="background" aria-hidden="true" d="M0,0h80v0h-80Z"/><g><g class="mark-group role-title"><g transform="translate(40,-20)"><path class="background" aria-hidden="true" d="M0,0h0v0h0Z" pointer-events="none"/><g><g class="mark-text role-title-text" role="graphics-symbol" aria-roledescription="title" aria-label="Title text 'hits@03'" pointer-events="none"><text text-anchor="middle" transform="translate(0,8)" font-family="arial narrow" font-size="16px" fill="#000" opacity="1">hits@03</text></g></g><path class="foreground" aria-hidden="true" d="" pointer-events="none" display="none"/></g></g></g><path class="foreground" aria-hidden="true" d="" display="none"/></g><g transform="translate(306,-1)"><path class="background" aria-hidden="true" d="M0,0h80v0h-80Z"/><g><g class="mark-group role-title"><g transform="translate(40,-20)"><path class="background" aria-hidden="true" d="M0,0h0v0h0Z" pointer-events="none"/><g><g class="mark-text role-title-text" role="graphics-symbol" aria-roledescription="title" aria-label="Title text 'hits@05'" pointer-events="none"><text text-anchor="middle" transform="translate(0,8)" font-family="arial narrow" font-size="16px" fill="#000" opacity="1">hits@05</text></g></g><path class="foreground" aria-hidden="true" d="" pointer-events="none" display="none"/></g></g></g><path class="foreground" aria-hidden="true" d="" display="none"/></g><g transform="translate(408,-1)"><path class="background" aria-hidden="true" d="M0,0h80v0h-80Z"/><g><g class="mark-group role-title"><g transform="translate(40,-20)"><path class="background" aria-hidden="true" d="M0,0h0v0h0Z" pointer-events="none"/><g><g class="mark-text role-title-text" role="graphics-symbol" aria-roledescription="title" aria-label="Title text 'hits@10'" pointer-events="none"><text text-anchor="middle" transform="translate(0,8)" font-family="arial narrow" font-size="16px" fill="#000" opacity="1">hits@10</text></g></g><path class="foreground" aria-hidden="true" d="" pointer-events="none" display="none"/></g></g></g><path class="foreground" aria-hidden="true" d="" display="none"/></g></g><g class="mark-group role-column-footer column_footer" role="graphics-object" aria-roledescription="group mark container"><g transform="translate(0,301)"><path class="background" aria-hidden="true" d="M0,0h80v0h-80Z"/><g><g class="mark-group role-axis" role="graphics-symbol" aria-roledescription="axis" aria-label="X-axis for a discrete scale with 4 values: BASE-DISTANCE, BASE-EMBEDDING, PPO-DISTANCE, PPO-EMBEDDING"><g transform="translate(0.5,0.5)"><path class="background" aria-hidden="true" d="M0,0h0v0h0Z" pointer-events="none"/><g><g class="mark-rule role-axis-tick" pointer-events="none"><line transform="translate(10,0)" x2="0" y2="5" stroke="#888" stroke-width="1" opacity="1"/><line transform="translate(30,0)" x2="0" y2="5" stroke="#888" stroke-width="1" opacity="1"/><line transform="translate(50,0)" x2="0" y2="5" stroke="#888" stroke-width="1" opacity="1"/><line transform="translate(70,0)" x2="0" y2="5" stroke="#888" stroke-width="1" opacity="1"/></g><g class="mark-text role-axis-label" pointer-events="none"><text text-anchor="end" transform="translate(9.5,7) rotate(270) translate(0,4)" font-family="arial narrow" font-size="16px" fill="#000" opacity="1">BASE-DISTANCE</text><text text-anchor="end" transform="translate(29.5,7) rotate(270) translate(0,4)" font-family="arial narrow" font-size="16px" fill="#000" opacity="1">BASE-EMBEDDING</text><text text-anchor="end" transform="translate(49.5,7) rotate(270) translate(0,4)" font-family="arial narrow" font-size="16px" fill="#000" opacity="1">PPO-DISTANCE</text><text text-anchor="end" transform="translate(69.5,7) rotate(270) translate(0,4)" font-family="arial narrow" font-size="16px" fill="#000" opacity="1">PPO-EMBEDDING</text></g><g class="mark-rule role-axis-domain" pointer-events="none"><line transform="translate(0,0)" x2="80" y2="0" stroke="#888" stroke-width="1" opacity="1"/></g></g><path class="foreground" aria-hidden="true" d="" pointer-events="none" display="none"/></g></g></g><path class="foreground" aria-hidden="true" d="" display="none"/></g><g transform="translate(102,301)"><path class="background" aria-hidden="true" d="M0,0h80v0h-80Z"/><g><g class="mark-group role-axis" role="graphics-symbol" aria-roledescription="axis" aria-label="X-axis for a discrete scale with 4 values: BASE-DISTANCE, BASE-EMBEDDING, PPO-DISTANCE, PPO-EMBEDDING"><g transform="translate(0.5,0.5)"><path class="background" aria-hidden="true" d="M0,0h0v0h0Z" pointer-events="none"/><g><g class="mark-rule role-axis-tick" pointer-events="none"><line transform="translate(10,0)" x2="0" y2="5" stroke="#888" stroke-width="1" opacity="1"/><line transform="translate(30,0)" x2="0" y2="5" stroke="#888" stroke-width="1" opacity="1"/><line transform="translate(50,0)" x2="0" y2="5" stroke="#888" stroke-width="1" opacity="1"/><line transform="translate(70,0)" x2="0" y2="5" stroke="#888" stroke-width="1" opacity="1"/></g><g class="mark-text role-axis-label" pointer-events="none"><text text-anchor="end" transform="translate(9.5,7) rotate(270) translate(0,4)" font-family="arial narrow" font-size="16px" fill="#000" opacity="1">BASE-DISTANCE</text><text text-anchor="end" transform="translate(29.5,7) rotate(270) translate(0,4)" font-family="arial narrow" font-size="16px" fill="#000" opacity="1">BASE-EMBEDDING</text><text text-anchor="end" transform="translate(49.5,7) rotate(270) translate(0,4)" font-family="arial narrow" font-size="16px" fill="#000" opacity="1">PPO-DISTANCE</text><text text-anchor="end" transform="translate(69.5,7) rotate(270) translate(0,4)" font-family="arial narrow" font-size="16px" fill="#000" opacity="1">PPO-EMBEDDING</text></g><g class="mark-rule role-axis-domain" pointer-events="none"><line transform="translate(0,0)" x2="80" y2="0" stroke="#888" stroke-width="1" opacity="1"/></g></g><path class="foreground" aria-hidden="true" d="" pointer-events="none" display="none"/></g></g></g><path class="foreground" aria-hidden="true" d="" display="none"/></g><g transform="translate(204,301)"><path class="background" aria-hidden="true" d="M0,0h80v0h-80Z"/><g><g class="mark-group role-axis" role="graphics-symbol" aria-roledescription="axis" aria-label="X-axis for a discrete scale with 4 values: BASE-DISTANCE, BASE-EMBEDDING, PPO-DISTANCE, PPO-EMBEDDING"><g transform="translate(0.5,0.5)"><path class="background" aria-hidden="true" d="M0,0h0v0h0Z" pointer-events="none"/><g><g class="mark-rule role-axis-tick" pointer-events="none"><line transform="translate(10,0)" x2="0" y2="5" stroke="#888" stroke-width="1" opacity="1"/><line transform="translate(30,0)" x2="0" y2="5" stroke="#888" stroke-width="1" opacity="1"/><line transform="translate(50,0)" x2="0" y2="5" stroke="#888" stroke-width="1" opacity="1"/><line transform="translate(70,0)" x2="0" y2="5" stroke="#888" stroke-width="1" opacity="1"/></g><g class="mark-text role-axis-label" pointer-events="none"><text text-anchor="end" transform="translate(9.5,7) rotate(270) translate(0,4)" font-family="arial narrow" font-size="16px" fill="#000" opacity="1">BASE-DISTANCE</text><text text-anchor="end" transform="translate(29.5,7) rotate(270) translate(0,4)" font-family="arial narrow" font-size="16px" fill="#000" opacity="1">BASE-EMBEDDING</text><text text-anchor="end" transform="translate(49.5,7) rotate(270) translate(0,4)" font-family="arial narrow" font-size="16px" fill="#000" opacity="1">PPO-DISTANCE</text><text text-anchor="end" transform="translate(69.5,7) rotate(270) translate(0,4)" font-family="arial narrow" font-size="16px" fill="#000" opacity="1">PPO-EMBEDDING</text></g><g class="mark-rule role-axis-domain" pointer-events="none"><line transform="translate(0,0)" x2="80" y2="0" stroke="#888" stroke-width="1" opacity="1"/></g></g><path class="foreground" aria-hidden="true" d="" pointer-events="none" display="none"/></g></g></g><path class="foreground" aria-hidden="true" d="" display="none"/></g><g transform="translate(306,301)"><path class="background" aria-hidden="true" d="M0,0h80v0h-80Z"/><g><g class="mark-group role-axis" role="graphics-symbol" aria-roledescription="axis" aria-label="X-axis for a discrete scale with 4 values: BASE-DISTANCE, BASE-EMBEDDING, PPO-DISTANCE, PPO-EMBEDDING"><g transform="translate(0.5,0.5)"><path class="background" aria-hidden="true" d="M0,0h0v0h0Z" pointer-events="none"/><g><g class="mark-rule role-axis-tick" pointer-events="none"><line transform="translate(10,0)" x2="0" y2="5" stroke="#888" stroke-width="1" opacity="1"/><line transform="translate(30,0)" x2="0" y2="5" stroke="#888" stroke-width="1" opacity="1"/><line transform="translate(50,0)" x2="0" y2="5" stroke="#888" stroke-width="1" opacity="1"/><line transform="translate(70,0)" x2="0" y2="5" stroke="#888" stroke-width="1" opacity="1"/></g><g class="mark-text role-axis-label" pointer-events="none"><text text-anchor="end" transform="translate(9.5,7) rotate(270) translate(0,4)" font-family="arial narrow" font-size="16px" fill="#000" opacity="1">BASE-DISTANCE</text><text text-anchor="end" transform="translate(29.5,7) rotate(270) translate(0,4)" font-family="arial narrow" font-size="16px" fill="#000" opacity="1">BASE-EMBEDDING</text><text text-anchor="end" transform="translate(49.5,7) rotate(270) translate(0,4)" font-family="arial narrow" font-size="16px" fill="#000" opacity="1">PPO-DISTANCE</text><text text-anchor="end" transform="translate(69.5,7) rotate(270) translate(0,4)" font-family="arial narrow" font-size="16px" fill="#000" opacity="1">PPO-EMBEDDING</text></g><g class="mark-rule role-axis-domain" pointer-events="none"><line transform="translate(0,0)" x2="80" y2="0" stroke="#888" stroke-width="1" opacity="1"/></g></g><path class="foreground" aria-hidden="true" d="" pointer-events="none" display="none"/></g></g></g><path class="foreground" aria-hidden="true" d="" display="none"/></g><g transform="translate(408,301)"><path class="background" aria-hidden="true" d="M0,0h80v0h-80Z"/><g><g class="mark-group role-axis" role="graphics-symbol" aria-roledescription="axis" aria-label="X-axis for a discrete scale with 4 values: BASE-DISTANCE, BASE-EMBEDDING, PPO-DISTANCE, PPO-EMBEDDING"><g transform="translate(0.5,0.5)"><path class="background" aria-hidden="true" d="M0,0h0v0h0Z" pointer-events="none"/><g><g class="mark-rule role-axis-tick" pointer-events="none"><line transform="translate(10,0)" x2="0" y2="5" stroke="#888" stroke-width="1" opacity="1"/><line transform="translate(30,0)" x2="0" y2="5" stroke="#888" stroke-width="1" opacity="1"/><line transform="translate(50,0)" x2="0" y2="5" stroke="#888" stroke-width="1" opacity="1"/><line transform="translate(70,0)" x2="0" y2="5" stroke="#888" stroke-width="1" opacity="1"/></g><g class="mark-text role-axis-label" pointer-events="none"><text text-anchor="end" transform="translate(9.5,7) rotate(270) translate(0,4)" font-family="arial narrow" font-size="16px" fill="#000" opacity="1">BASE-DISTANCE</text><text text-anchor="end" transform="translate(29.5,7) rotate(270) translate(0,4)" font-family="arial narrow" font-size="16px" fill="#000" opacity="1">BASE-EMBEDDING</text><text text-anchor="end" transform="translate(49.5,7) rotate(270) translate(0,4)" font-family="arial narrow" font-size="16px" fill="#000" opacity="1">PPO-DISTANCE</text><text text-anchor="end" transform="translate(69.5,7) rotate(270) translate(0,4)" font-family="arial narrow" font-size="16px" fill="#000" opacity="1">PPO-EMBEDDING</text></g><g class="mark-rule role-axis-domain" pointer-events="none"><line transform="translate(0,0)" x2="80" y2="0" stroke="#888" stroke-width="1" opacity="1"/></g></g><path class="foreground" aria-hidden="true" d="" pointer-events="none" display="none"/></g></g></g><path class="foreground" aria-hidden="true" d="" display="none"/></g></g><g class="mark-group role-scope cell" role="graphics-object" aria-roledescription="group mark container"><g transform="translate(0,0)"><path class="background" aria-hidden="true" d="M0.5,0.5h80v300h-80Z" stroke="#ddd"/><g><g class="mark-group role-axis" aria-hidden="true"><g transform="translate(0.5,0.5)"><path class="background" aria-hidden="true" d="M0,0h0v0h0Z" pointer-events="none"/><g><g class="mark-rule role-axis-grid" pointer-events="none"><line transform="translate(0,300)" x2="80" y2="0" stroke="#ddd" stroke-width="1" opacity="1"/><line transform="translate(0,270)" x2="80" y2="0" stroke="#ddd" stroke-width="1" opacity="1"/><line transform="translate(0,240)" x2="80" y2="0" stroke="#ddd" stroke-width="1" opacity="1"/><line transform="translate(0,210)" x2="80" y2="0" stroke="#ddd" stroke-width="1" opacity="1"/><line transform="translate(0,180)" x2="80" y2="0" stroke="#ddd" stroke-width="1" opacity="1"/><line transform="translate(0,150)" x2="80" y2="0" stroke="#ddd" stroke-width="1" opacity="1"/><line transform="translate(0,120)" x2="80" y2="0" stroke="#ddd" stroke-width="1" opacity="1"/><line transform="translate(0,90)" x2="80" y2="0" stroke="#ddd" stroke-width="1" opacity="1"/><line transform="translate(0,60)" x2="80" y2="0" stroke="#ddd" stroke-width="1" opacity="1"/><line transform="translate(0,30)" x2="80" y2="0" stroke="#ddd" stroke-width="1" opacity="1"/><line transform="translate(0,0)" x2="80" y2="0" stroke="#ddd" stroke-width="1" opacity="1"/></g></g><path class="foreground" aria-hidden="true" d="" pointer-events="none" display="none"/></g></g><g class="mark-rect role-mark child_marks" role="graphics-object" aria-roledescription="rect mark container"><path aria-label="config: BASE-DISTANCE; value: 0.6923" role="graphics-symbol" aria-roledescription="bar" d="M1,92.30999999999999h18v207.69h-18Z" fill="#003f5c"/><path aria-label="config: BASE-EMBEDDING; value: 0.7711" role="graphics-symbol" aria-roledescription="bar" d="M21,68.67h18v231.32999999999998h-18Z" fill="#374c80"/><path aria-label="config: PPO-DISTANCE; value: 0.7335" role="graphics-symbol" aria-roledescription="bar" d="M41,79.94999999999999h18v220.05h-18Z" fill="#7a5195"/><path aria-label="config: PPO-EMBEDDING; value: 0.7889" role="graphics-symbol" aria-roledescription="bar" d="M61,63.329999999999984h18v236.67000000000002h-18Z" fill="#bc5090"/></g></g><path class="foreground" aria-hidden="true" d="" display="none"/></g><g transform="translate(102,0)"><path class="background" aria-hidden="true" d="M0.5,0.5h80v300h-80Z" stroke="#ddd"/><g><g class="mark-group role-axis" aria-hidden="true"><g transform="translate(0.5,0.5)"><path class="background" aria-hidden="true" d="M0,0h0v0h0Z" pointer-events="none"/><g><g class="mark-rule role-axis-grid" pointer-events="none"><line transform="translate(0,300)" x2="80" y2="0" stroke="#ddd" stroke-width="1" opacity="1"/><line transform="translate(0,270)" x2="80" y2="0" stroke="#ddd" stroke-width="1" opacity="1"/><line transform="translate(0,240)" x2="80" y2="0" stroke="#ddd" stroke-width="1" opacity="1"/><line transform="translate(0,210)" x2="80" y2="0" stroke="#ddd" stroke-width="1" opacity="1"/><line transform="translate(0,180)" x2="80" y2="0" stroke="#ddd" stroke-width="1" opacity="1"/><line transform="translate(0,150)" x2="80" y2="0" stroke="#ddd" stroke-width="1" opacity="1"/><line transform="translate(0,120)" x2="80" y2="0" stroke="#ddd" stroke-width="1" opacity="1"/><line transform="translate(0,90)" x2="80" y2="0" stroke="#ddd" stroke-width="1" opacity="1"/><line transform="translate(0,60)" x2="80" y2="0" stroke="#ddd" stroke-width="1" opacity="1"/><line transform="translate(0,30)" x2="80" y2="0" stroke="#ddd" stroke-width="1" opacity="1"/><line transform="translate(0,0)" x2="80" y2="0" stroke="#ddd" stroke-width="1" opacity="1"/></g></g><path class="foreground" aria-hidden="true" d="" pointer-events="none" display="none"/></g></g><g class="mark-rect role-mark child_marks" role="graphics-object" aria-roledescription="rect mark container"><path aria-label="config: BASE-DISTANCE; value: 0.445" role="graphics-symbol" aria-roledescription="bar" d="M1,166.49999999999997h18v133.50000000000003h-18Z" fill="#003f5c"/><path aria-label="config: BASE-EMBEDDING; value: 0.588" role="graphics-symbol" aria-roledescription="bar" d="M21,123.60000000000001h18v176.39999999999998h-18Z" fill="#374c80"/><path aria-label="config: PPO-DISTANCE; value: 0.551" role="graphics-symbol" aria-roledescription="bar" d="M41,134.7h18v165.3h-18Z" fill="#7a5195"/><path aria-label="config: PPO-EMBEDDING; value: 0.634" role="graphics-symbol" aria-roledescription="bar" d="M61,109.8h18v190.2h-18Z" fill="#bc5090"/></g></g><path class="foreground" aria-hidden="true" d="" display="none"/></g><g transform="translate(204,0)"><path class="background" aria-hidden="true" d="M0.5,0.5h80v300h-80Z" stroke="#ddd"/><g><g class="mark-group role-axis" aria-hidden="true"><g transform="translate(0.5,0.5)"><path class="background" aria-hidden="true" d="M0,0h0v0h0Z" pointer-events="none"/><g><g class="mark-rule role-axis-grid" pointer-events="none"><line transform="translate(0,300)" x2="80" y2="0" stroke="#ddd" stroke-width="1" opacity="1"/><line transform="translate(0,270)" x2="80" y2="0" stroke="#ddd" stroke-width="1" opacity="1"/><line transform="translate(0,240)" x2="80" y2="0" stroke="#ddd" stroke-width="1" opacity="1"/><line transform="translate(0,210)" x2="80" y2="0" stroke="#ddd" stroke-width="1" opacity="1"/><line transform="translate(0,180)" x2="80" y2="0" stroke="#ddd" stroke-width="1" opacity="1"/><line transform="translate(0,150)" x2="80" y2="0" stroke="#ddd" stroke-width="1" opacity="1"/><line transform="translate(0,120)" x2="80" y2="0" stroke="#ddd" stroke-width="1" opacity="1"/><line transform="translate(0,90)" x2="80" y2="0" stroke="#ddd" stroke-width="1" opacity="1"/><line transform="translate(0,60)" x2="80" y2="0" stroke="#ddd" stroke-width="1" opacity="1"/><line transform="translate(0,30)" x2="80" y2="0" stroke="#ddd" stroke-width="1" opacity="1"/><line transform="translate(0,0)" x2="80" y2="0" stroke="#ddd" stroke-width="1" opacity="1"/></g></g><path class="foreground" aria-hidden="true" d="" pointer-events="none" display="none"/></g></g><g class="mark-rect role-mark child_marks" role="graphics-object" aria-roledescription="rect mark container"><path aria-label="config: BASE-DISTANCE; value: 0.804" role="graphics-symbol" aria-roledescription="bar" d="M1,58.79999999999998h18v241.20000000000002h-18Z" fill="#003f5c"/><path aria-label="config: BASE-EMBEDDING; value: 0.897" role="graphics-symbol" aria-roledescription="bar" d="M21,30.899999999999995h18v269.1h-18Z" fill="#374c80"/><path aria-label="config: PPO-DISTANCE; value: 0.869" role="graphics-symbol" aria-roledescription="bar" d="M41,39.300000000000004h18v260.7h-18Z" fill="#7a5195"/><path aria-label="config: PPO-EMBEDDING; value: 0.953" role="graphics-symbol" aria-roledescription="bar" d="M61,14.100000000000012h18v285.9h-18Z" fill="#bc5090"/></g></g><path class="foreground" aria-hidden="true" d="" display="none"/></g><g transform="translate(306,0)"><path class="background" aria-hidden="true" d="M0.5,0.5h80v300h-80Z" stroke="#ddd"/><g><g class="mark-group role-axis" aria-hidden="true"><g transform="translate(0.5,0.5)"><path class="background" aria-hidden="true" d="M0,0h0v0h0Z" pointer-events="none"/><g><g class="mark-rule role-axis-grid" pointer-events="none"><line transform="translate(0,300)" x2="80" y2="0" stroke="#ddd" stroke-width="1" opacity="1"/><line transform="translate(0,270)" x2="80" y2="0" stroke="#ddd" stroke-width="1" opacity="1"/><line transform="translate(0,240)" x2="80" y2="0" stroke="#ddd" stroke-width="1" opacity="1"/><line transform="translate(0,210)" x2="80" y2="0" stroke="#ddd" stroke-width="1" opacity="1"/><line transform="translate(0,180)" x2="80" y2="0" stroke="#ddd" stroke-width="1" opacity="1"/><line transform="translate(0,150)" x2="80" y2="0" stroke="#ddd" stroke-width="1" opacity="1"/><line transform="translate(0,120)" x2="80" y2="0" stroke="#ddd" stroke-width="1" opacity="1"/><line transform="translate(0,90)" x2="80" y2="0" stroke="#ddd" stroke-width="1" opacity="1"/><line transform="translate(0,60)" x2="80" y2="0" stroke="#ddd" stroke-width="1" opacity="1"/><line transform="translate(0,30)" x2="80" y2="0" stroke="#ddd" stroke-width="1" opacity="1"/><line transform="translate(0,0)" x2="80" y2="0" stroke="#ddd" stroke-width="1" opacity="1"/></g></g><path class="foreground" aria-hidden="true" d="" pointer-events="none" display="none"/></g></g><g class="mark-rect role-mark child_marks" role="graphics-object" aria-roledescription="rect mark container"><path aria-label="config: BASE-DISTANCE; value: 0.908" role="graphics-symbol" aria-roledescription="bar" d="M1,27.59999999999999h18v272.40000000000003h-18Z" fill="#003f5c"/><path aria-label="config: BASE-EMBEDDING; value: 0.964" role="graphics-symbol" aria-roledescription="bar" d="M21,10.80000000000001h18v289.2h-18Z" fill="#374c80"/><path aria-label="config: PPO-DISTANCE; value: 0.947" role="graphics-symbol" aria-roledescription="bar" d="M41,15.900000000000015h18v284.09999999999997h-18Z" fill="#7a5195"/><path aria-label="config: PPO-EMBEDDING; value: 0.996" role="graphics-symbol" aria-roledescription="bar" d="M61,1.200000000000001h18v298.8h-18Z" fill="#bc5090"/></g></g><path class="foreground" aria-hidden="true" d="" display="none"/></g><g transform="translate(408,0)"><path class="background" aria-hidden="true" d="M0.5,0.5h80v300h-80Z" stroke="#ddd"/><g><g class="mark-group role-axis" aria-hidden="true"><g transform="translate(0.5,0.5)"><path class="background" aria-hidden="true" d="M0,0h0v0h0Z" pointer-events="none"/><g><g class="mark-rule role-axis-grid" pointer-events="none"><line transform="translate(0,300)" x2="80" y2="0" stroke="#ddd" stroke-width="1" opacity="1"/><line transform="translate(0,270)" x2="80" y2="0" stroke="#ddd" stroke-width="1" opacity="1"/><line transform="translate(0,240)" x2="80" y2="0" stroke="#ddd" stroke-width="1" opacity="1"/><line transform="translate(0,210)" x2="80" y2="0" stroke="#ddd" stroke-width="1" opacity="1"/><line transform="translate(0,180)" x2="80" y2="0" stroke="#ddd" stroke-width="1" opacity="1"/><line transform="translate(0,150)" x2="80" y2="0" stroke="#ddd" stroke-width="1" opacity="1"/><line transform="translate(0,120)" x2="80" y2="0" stroke="#ddd" stroke-width="1" opacity="1"/><line transform="translate(0,90)" x2="80" y2="0" stroke="#ddd" stroke-width="1" opacity="1"/><line transform="translate(0,60)" x2="80" y2="0" stroke="#ddd" stroke-width="1" opacity="1"/><line transform="translate(0,30)" x2="80" y2="0" stroke="#ddd" stroke-width="1" opacity="1"/><line transform="translate(0,0)" x2="80" y2="0" stroke="#ddd" stroke-width="1" opacity="1"/></g></g><path class="foreground" aria-hidden="true" d="" pointer-events="none" display="none"/></g></g><g class="mark-rect role-mark child_marks" role="graphics-object" aria-roledescription="rect mark container"><path aria-label="config: BASE-DISTANCE; value: 0.949" role="graphics-symbol" aria-roledescription="bar" d="M1,15.300000000000013h18v284.7h-18Z" fill="#003f5c"/><path aria-label="config: BASE-EMBEDDING; value: 0.987" role="graphics-symbol" aria-roledescription="bar" d="M21,3.9000000000000035h18v296.1h-18Z" fill="#374c80"/><path aria-label="config: PPO-DISTANCE; value: 0.983" role="graphics-symbol" aria-roledescription="bar" d="M41,5.100000000000005h18v294.9h-18Z" fill="#7a5195"/><path aria-label="config: PPO-EMBEDDING; value: 0.999" role="graphics-symbol" aria-roledescription="bar" d="M61,0.30000000000000027h18v299.7h-18Z" fill="#bc5090"/></g></g><path class="foreground" aria-hidden="true" d="" display="none"/></g></g></g><path class="foreground" aria-hidden="true" d="" display="none"/></g></g></g></svg>