<svg xmlns="http://www.w3.org/2000/svg" xmlns:xlink="http://www.w3.org/1999/xlink" version="1.1" class="marks" width="170" height="457" viewBox="0 0 170 457"><rect width="170" height="457" fill="white"/><g fill="none" stroke-miterlimit="10" transform="translate(65,11)"><g class="mark-group role-frame root" role="graphics-object" aria-roledescription="group mark container"><g transform="translate(0,0)"><path class="background" aria-hidden="true" d="M0.5,0.5h100v300h-100Z" stroke="#ddd"/><g><g class="mark-group role-axis" aria-hidden="true"><g transform="translate(0.5,0.5)"><path class="background" aria-hidden="true" d="M0,0h0v0h0Z" pointer-events="none"/><g><g class="mark-rule role-axis-grid" pointer-events="none"><line transform="translate(0,300)" x2="100" y2="0" stroke="#ddd" stroke-width="1" opacity="1"/><line transform="translate(0,277)" x2="100" y2="0" stroke="#ddd" stroke-width="1" opacity="1"/><line transform="translate(0,264)" x2="100" y2="0" stroke="#ddd" stroke-width="1" opacity="1"/><line transform="translate(0,255)" x2="100" y2="0" stroke="#ddd" stroke-width="1" opacity="1"/><line transform="translate(0,248)" x2="100" y2="0" stroke="#ddd" stroke-width="1" opacity="1"/><line transform="translate(0,242)" x2="100" y2="0" stroke="#ddd" stroke-width="1" opacity="1"/><line transform="translate(0,237)" x2="100" y2="0" stroke="#ddd" stroke-width="1" opacity="1"/><line transform="translate(0,232)" x2="100" y2="0" stroke="#ddd" stroke-width="1" opacity="1"/><line transform="translate(0,228)" x2="100" y2="0" stroke="#ddd" stroke-width="1" opacity="1"/><line transform="translate(0,225)" x2="100" y2="0" stroke="#ddd" stroke-width="1" opacity="1"/><line transform="translate(0,202)" x2="100" y2="0" stroke="#ddd" stroke-width="1" opacity="1"/><line transform="translate(0,189)" x2="100" y2="0" stroke="#ddd" stroke-width="1" opacity="1"/><line transform="translate(0,180)" x2="100" y2="0" stroke="#ddd" stroke-width="1" opacity="1"/><line transform="translate(0,173)" x2="100" y2="0" stroke="#ddd" stroke-width="1" opacity="1"/><line transform="translate(0,167)" x2="100" y2="0" stroke="#ddd" stroke-width="1" opacity="1"/><line transform="translate(0,162)" x2="100" y2="0" stroke="#ddd" stroke-width="1" opacity="1"/><line transform="translate(0,157)" x2="100" y2="0" stroke="#ddd" stroke-width="1" opacity="1"/><line transform="translate(0,153)" x2="100" y2="0" stroke="#ddd" stroke-width="1" opacity="1"/><line transform="translate(0,150)" x2="100" y2="0" stroke="#ddd" stroke-width="1" opacity="1"/><line transform="translate(0,127)" x2="100" y2="0" stroke="#ddd" stroke-width="1" opacity="1"/><line transform="translate(0,114)" x2="100" y2="0" stroke="#ddd" stroke-width="1" opacity="1"/><line transform="translate(0,105)" x2="100" y2="0" stroke="#ddd" stroke-width="1" opacity="1"/><line transform="translate(0,98)" x2="100" y2="0" stroke="#ddd" stroke-width="1" opacity="1"/><line transform="translate(0,92)" x2="100" y2="0" stroke="#ddd" stroke-width="1" opacity="1"/><line transform="translate(0,87)" x2="100" y2="0" stroke="#ddd" stroke-width="1" opacity="1"/><line transform="translate(0,82)" x2="100" y2="0" stroke="#ddd" stroke-width="1" opacity="1"/><line transform="translate(0,78)" x2="100" y2="0" stroke="#ddd" stroke-width="1" opacity="1"/><line transform="translate(0,75)" x2="100" y2="0" stroke="#ddd" stroke-width="1" opacity="1"/><line transform="translate(0,52)" x2="100" y2="0" stroke="#ddd" stroke-width="1" opacity="1"/><line transform="translate(0,39)" x2="100" y2="0" stroke="#ddd" stroke-width="1" opacity="1"/><line transform="translate(0,30)" x2="100" y2="0" stroke="#ddd" stroke-width="1" opacity="1"/><line transform="translate(0,23)" x2="100" y2="0" stroke="#ddd" stroke-width="1" opacity="1"/><line transform="translate(0,17)" x2="100" y2="0" stroke="#ddd" stroke-width="1" opacity="1"/><line transform="translate(0,12)" x2="100" y2="0" stroke="#ddd" stroke-width="1" opacity="1"/><line transform="translate(0,7)" x2="100" y2="0" stroke="#ddd" stroke-width="1" opacity="1"/><line transform="translate(0,3)" x2="100" y2="0" stroke="#ddd" stroke-width="1" opacity="1"/><line transform="translate(0,0)" x2="100" y2="0" stroke="#ddd" stroke-width="1" opacity="1"/></g></g><path class="foreground" aria-hidden="true" d="" pointer-events="none" display="none"/></g></g><g class="mark-group role-axis" role="graphics-symbol" aria-roledescription="axis" aria-label="X-axis titled 'rel name' for a discrete scale with 5 values: similar_to, verb_group, also_see, derivationally_related_from, GENERIC"><g transform="translate(0.5,300.5)"><path class="background" aria-hidden="true" d="M0,0h0v0h0Z" pointer-events="none"/><g><g class="mark-rule role-axis-tick" pointer-events="none"><line transform="translate(10,0)" x2="0" y2="5" stroke="#888" stroke-width="1" opacity="1"/><line transform="translate(30,0)" x2="0" y2="5" stroke="#888" stroke-width="1" opacity="1"/><line transform="translate(50,0)" x2="0" y2="5" stroke="#888" stroke-width="1" opacity="1"/><line transform="translate(70,0)" x2="0" y2="5" stroke="#888" stroke-width="1" opacity="1"/><line transform="translate(90,0)" x2="0" y2="5" stroke="#888" stroke-width="1" opacity="1"/></g><g class="mark-text role-axis-label" pointer-events="none"><text text-anchor="end" transform="translate(9.5,7) rotate(270) translate(0,4)" font-family="arial narrow" font-size="12px" fill="#000" opacity="1">similar_to</text><text text-anchor="end" transform="translate(29.5,7) rotate(270) translate(0,4)" font-family="arial narrow" font-size="12px" fill="#000" opacity="1">verb_group</text><text text-anchor="end" transform="translate(49.5,7) rotate(270) translate(0,4)" font-family="arial narrow" font-size="12px" fill="#000" opacity="1">also_see</text><text text-anchor="end" transform="translate(69.5,7) rotate(270) translate(0,4)" font-family="arial narrow" font-size="12px" fill="#000" opacity="1">derivationally_related_from</text><text text-anchor="end" transform="translate(89.5,7) rotate(270) translate(0,4)" font-family="arial narrow" font-size="12px" fill="#000" opacity="1">GENERIC</text></g><g class="mark-rule role-axis-domain" pointer-events="none"><line transform="translate(0,0)" x2="100" y2="0" stroke="#888" stroke-width="1" opacity="1"/></g><g class="mark-text role-axis-title" pointer-events="none"><text text-anchor="middle" transform="translate(50,138.1484375)" font-family="arial narrow" font-size="12px" font-weight="bold" fill="#000" opacity="1">rel name</text></g></g><path class="foreground" aria-hidden="true" d="" pointer-events="none" display="none"/></g></g><g class="mark-group role-axis" role="graphics-symbol" aria-roledescription="axis" aria-label="Y-axis titled 'rel #' for a log scale with values from 10 to 100,000"><g transform="translate(0.5,0.5)"><path class="background" aria-hidden="true" d="M0,0h0v0h0Z" pointer-events="none"/><g><g class="mark-rule role-axis-tick" pointer-events="none"><line transform="translate(0,300)" x2="-5" y2="0" stroke="#888" stroke-width="1" opacity="1"/><line transform="translate(0,277)" x2="-5" y2="0" stroke="#888" stroke-width="1" opacity="1"/><line transform="translate(0,264)" x2="-5" y2="0" stroke="#888" stroke-width="1" opacity="1"/><line transform="translate(0,255)" x2="-5" y2="0" stroke="#888" stroke-width="1" opacity="1"/><line transform="translate(0,248)" x2="-5" y2="0" stroke="#888" stroke-width="1" opacity="1"/><line transform="translate(0,242)" x2="-5" y2="0" stroke="#888" stroke-width="1" opacity="1"/><line transform="translate(0,237)" x2="-5" y2="0" stroke="#888" stroke-width="1" opacity="1"/><line transform="translate(0,232)" x2="-5" y2="0" stroke="#888" stroke-width="1" opacity="1"/><line transform="translate(0,228)" x2="-5" y2="0" stroke="#888" stroke-width="1" opacity="1"/><line transform="translate(0,225)" x2="-5" y2="0" stroke="#888" stroke-width="1" opacity="1"/><line transform="translate(0,202)" x2="-5" y2="0" stroke="#888" stroke-width="1" opacity="1"/><line transform="translate(0,189)" x2="-5" y2="0" stroke="#888" stroke-width="1" opacity="1"/><line transform="translate(0,180)" x2="-5" y2="0" stroke="#888" stroke-width="1" opacity="1"/><line transform="translate(0,173)" x2="-5" y2="0" stroke="#888" stroke-width="1" opacity="1"/><line transform="translate(0,167)" x2="-5" y2="0" stroke="#888" stroke-width="1" opacity="1"/><line transform="translate(0,162)" x2="-5" y2="0" stroke="#888" stroke-width="1" opacity="1"/><line transform="translate(0,157)" x2="-5" y2="0" stroke="#888" stroke-width="1" opacity="1"/><line transform="translate(0,153)" x2="-5" y2="0" stroke="#888" stroke-width="1" opacity="1"/><line transform="translate(0,150)" x2="-5" y2="0" stroke="#888" stroke-width="1" opacity="1"/><line transform="translate(0,127)" x2="-5" y2="0" stroke="#888" stroke-width="1" opacity="1"/><line transform="translate(0,114)" x2="-5" y2="0" stroke="#888" stroke-width="1" opacity="1"/><line transform="translate(0,105)" x2="-5" y2="0" stroke="#888" stroke-width="1" opacity="1"/><line transform="translate(0,98)" x2="-5" y2="0" stroke="#888" stroke-width="1" opacity="1"/><line transform="translate(0,92)" x2="-5" y2="0" stroke="#888" stroke-width="1" opacity="1"/><line transform="translate(0,87)" x2="-5" y2="0" stroke="#888" stroke-width="1" opacity="1"/><line transform="translate(0,82)" x2="-5" y2="0" stroke="#888" stroke-width="1" opacity="1"/><line transform="translate(0,78)" x2="-5" y2="0" stroke="#888" stroke-width="1" opacity="1"/><line transform="translate(0,75)" x2="-5" y2="0" stroke="#888" stroke-width="1" opacity="1"/><line transform="translate(0,52)" x2="-5" y2="0" stroke="#888" stroke-width="1" opacity="1"/><line transform="translate(0,39)" x2="-5" y2="0" stroke="#888" stroke-width="1" opacity="1"/><line transform="translate(0,30)" x2="-5" y2="0" stroke="#888" stroke-width="1" opacity="1"/><line transform="translate(0,23)" x2="-5" y2="0" stroke="#888" stroke-width="1" opacity="1"/><line transform="translate(0,17)" x2="-5" y2="0" stroke="#888" stroke-width="1" opacity="1"/><line transform="translate(0,12)" x2="-5" y2="0" stroke="#888" stroke-width="1" opacity="1"/><line transform="translate(0,7)" x2="-5" y2="0" stroke="#888" stroke-width="1" opacity="1"/><line transform="translate(0,3)" x2="-5" y2="0" stroke="#888" stroke-width="1" opacity="1"/><line transform="translate(0,0)" x2="-5" y2="0" stroke="#888" stroke-width="1" opacity="1"/></g><g class="mark-text role-axis-label" pointer-events="none"><text text-anchor="end" transform="translate(-7,304)" font-family="arial narrow" font-size="12px" fill="#000" opacity="1">10</text><text text-anchor="end" transform="translate(-7,281.4227503252014)" font-family="arial narrow" font-size="12px" fill="#000" opacity="1">20</text><text text-anchor="end" transform="translate(-7,268.21590589602533)" font-family="arial narrow" font-size="12px" fill="#000" opacity="1"/><text text-anchor="end" transform="translate(-7,258.84550065040287)" font-family="arial narrow" font-size="12px" fill="#000" opacity="1"/><text text-anchor="end" transform="translate(-7,251.5772496747986)" font-family="arial narrow" font-size="12px" fill="#000" opacity="1"/><text text-anchor="end" transform="translate(-7,245.63865622122674)" font-family="arial narrow" font-size="12px" fill="#000" opacity="1"/><text text-anchor="end" transform="translate(-7,240.61764699893072)" font-family="arial narrow" font-size="12px" fill="#000" opacity="1"/><text text-anchor="end" transform="translate(-7,236.26825097560425)" font-family="arial narrow" font-size="12px" fill="#000" opacity="1"/><text text-anchor="end" transform="translate(-7,232.43181179205064)" font-family="arial narrow" font-size="12px" fill="#000" opacity="1"/><text text-anchor="end" transform="translate(-7,229)" font-family="arial narrow" font-size="12px" fill="#000" opacity="1">100</text><text text-anchor="end" transform="translate(-7,206.42275032520143)" font-family="arial narrow" font-size="12px" fill="#000" opacity="1">200</text><text text-anchor="end" transform="translate(-7,193.21590589602533)" font-family="arial narrow" font-size="12px" fill="#000" opacity="1"/><text text-anchor="end" transform="translate(-7,183.84550065040284)" font-family="arial narrow" font-size="12px" fill="#000" opacity="1"/><text text-anchor="end" transform="translate(-7,176.57724967479862)" font-family="arial narrow" font-size="12px" fill="#000" opacity="1"/><text text-anchor="end" transform="translate(-7,170.63865622122674)" font-family="arial narrow" font-size="12px" fill="#000" opacity="1"/><text text-anchor="end" transform="translate(-7,165.61764699893075)" font-family="arial narrow" font-size="12px" fill="#000" opacity="1"/><text text-anchor="end" transform="translate(-7,161.26825097560425)" font-family="arial narrow" font-size="12px" fill="#000" opacity="1"/><text text-anchor="end" transform="translate(-7,157.43181179205064)" font-family="arial narrow" font-size="12px" fill="#000" opacity="1"/><text text-anchor="end" transform="translate(-7,154.00000000000003)" font-family="arial narrow" font-size="12px" fill="#000" opacity="1">1,000</text><text text-anchor="end" transform="translate(-7,131.42275032520143)" font-family="arial narrow" font-size="12px" fill="#000" opacity="1">2,000</text><text text-anchor="end" transform="translate(-7,118.21590589602538)" font-family="arial narrow" font-size="12px" fill="#000" opacity="1"/><text text-anchor="end" transform="translate(-7,108.84550065040284)" font-family="arial narrow" font-size="12px" fill="#000" opacity="1"/><text text-anchor="end" transform="translate(-7,101.5772496747986)" font-family="arial narrow" font-size="12px" fill="#000" opacity="1"/><text text-anchor="end" transform="translate(-7,95.63865622122678)" font-family="arial narrow" font-size="12px" fill="#000" opacity="1"/><text text-anchor="end" transform="translate(-7,90.61764699893077)" font-family="arial narrow" font-size="12px" fill="#000" opacity="1"/><text text-anchor="end" transform="translate(-7,86.26825097560425)" font-family="arial narrow" font-size="12px" fill="#000" opacity="1"/><text text-anchor="end" transform="translate(-7,82.43181179205064)" font-family="arial narrow" font-size="12px" fill="#000" opacity="1"/><text text-anchor="end" transform="translate(-7,79)" font-family="arial narrow" font-size="12px" fill="#000" opacity="1">10,000</text><text text-anchor="end" transform="translate(-7,56.42275032520147)" font-family="arial narrow" font-size="12px" fill="#000" opacity="1">20,000</text><text text-anchor="end" transform="translate(-7,43.215905896025305)" font-family="arial narrow" font-size="12px" fill="#000" opacity="1"/><text text-anchor="end" transform="translate(-7,33.84550065040284)" font-family="arial narrow" font-size="12px" fill="#000" opacity="1"/><text text-anchor="end" transform="translate(-7,26.57724967479866)" font-family="arial narrow" font-size="12px" fill="#000" opacity="1"/><text text-anchor="end" transform="translate(-7,20.63865622122678)" font-family="arial narrow" font-size="12px" fill="#000" opacity="1"/><text text-anchor="end" transform="translate(-7,15.61764699893083)" font-family="arial narrow" font-size="12px" fill="#000" opacity="1"/><text text-anchor="end" transform="translate(-7,11.268250975604317)" font-family="arial narrow" font-size="12px" fill="#000" opacity="1"/><text text-anchor="end" transform="translate(-7,7.431811792050709)" font-family="arial narrow" font-size="12px" fill="#000" opacity="1"/><text text-anchor="end" transform="translate(-7,4)" font-family="arial narrow" font-size="12px" fill="#000" opacity="1">100,000</text></g><g class="mark-rule role-axis-domain" pointer-events="none"><line transform="translate(0,300)" x2="0" y2="-300" stroke="#888" stroke-width="1" opacity="1"/></g><g class="mark-text role-axis-title" pointer-events="none"><text text-anchor="middle" transform="translate(-46.572265625,150) rotate(-90) translate(0,-3)" font-family="arial narrow" font-size="12px" font-weight="bold" fill="#000" opacity="1">rel #</text></g></g><path class="foreground" aria-hidden="true" d="" pointer-events="none" display="none"/></g></g><g class="mark-rect role-mark marks" role="graphics-object" aria-roledescription="rect mark container"><path aria-label="rel name: similar_to; rel #: 80" role="graphics-symbol" aria-roledescription="bar" d="M1,232.26825097560425h18v67.73174902439575h-18Z" fill="#003f5c"/><path aria-label="rel name: verb_group; rel #: 1138" role="graphics-symbol" aria-roledescription="bar" d="M21,145.7893303455711h18v154.2106696544289h-18Z" fill="#374c80"/><path aria-label="rel name: also_see; rel #: 1299" role="graphics-symbol" aria-roledescription="bar" d="M41,141.47931366952292h18v158.52068633047708h-18Z" fill="#7a5195"/><path aria-label="rel name: derivationally_related_from; rel #: 29715" role="graphics-symbol" aria-roledescription="bar" d="M61,39.526819905432895h18v260.4731800945671h-18Z" fill="#bc5090"/><path aria-label="rel name: GENERIC; rel #: 80798" role="graphics-symbol" aria-roledescription="bar" d="M81,6.9449541916404955h18v293.0550458083595h-18Z" fill="#ef5675"/></g></g><path class="foreground" aria-hidden="true" d="" display="none"/></g></g></g></svg>