<svg xmlns="http://www.w3.org/2000/svg" xmlns:xlink="http://www.w3.org/1999/xlink" version="1.1" class="marks" width="185" height="503" viewBox="0 0 185 503"><rect width="185" height="503" fill="white"/><g fill="none" stroke-miterlimit="10" transform="translate(80,13)"><g class="mark-group role-frame root" role="graphics-object" aria-roledescription="group mark container"><g transform="translate(0,0)"><path class="background" aria-hidden="true" d="M0.5,0.5h100v300h-100Z" stroke="#ddd"/><g><g class="mark-group role-axis" aria-hidden="true"><g transform="translate(0.5,0.5)"><path class="background" aria-hidden="true" d="M0,0h0v0h0Z" pointer-events="none"/><g><g class="mark-rule role-axis-grid" pointer-events="none"><line transform="translate(0,300)" x2="100" y2="0" stroke="#ddd" stroke-width="1" opacity="1"/><line transform="translate(0,277)" x2="100" y2="0" stroke="#ddd" stroke-width="1" opacity="1"/><line transform="translate(0,264)" x2="100" y2="0" stroke="#ddd" stroke-width="1" opacity="1"/><line transform="translate(0,255)" x2="100" y2="0" stroke="#ddd" stroke-width="1" opacity="1"/><line transform="translate(0,248)" x2="100" y2="0" stroke="#ddd" stroke-width="1" opacity="1"/><line transform="translate(0,242)" x2="100" y2="0" stroke="#ddd" stroke-width="1" opacity="1"/><line transform="translate(0,237)" x2="100" y2="0" stroke="#ddd" stroke-width="1" opacity="1"/><line transform="translate(0,232)" x2="100" y2="0" stroke="#ddd" stroke-width="1" opacity="1"/><line transform="translate(0,228)" x2="100" y2="0" stroke="#ddd" stroke-width="1" opacity="1"/><line transform="translate(0,225)" x2="100" y2="0" stroke="#ddd" stroke-width="1" opacity="1"/><line transform="translate(0,202)" x2="100" y2="0" stroke="#ddd" stroke-width="1" opacity="1"/><line transform="translate(0,189)" x2="100" y2="0" stroke="#ddd" stroke-width="1" opacity="1"/><line transform="translate(0,180)" x2="100" y2="0" stroke="#ddd" stroke-width="1" opacity="1"/><line transform="translate(0,173)" x2="100" y2="0" stroke="#ddd" stroke-width="1" opacity="1"/><line transform="translate(0,167)" x2="100" y2="0" stroke="#ddd" stroke-width="1" opacity="1"/><line transform="translate(0,162)" x2="100" y2="0" stroke="#ddd" stroke-width="1" opacity="1"/><line transform="translate(0,157)" x2="100" y2="0" stroke="#ddd" stroke-width="1" opacity="1"/><line transform="translate(0,153)" x2="100" y2="0" stroke="#ddd" stroke-width="1" opacity="1"/><line transform="translate(0,150)" x2="100" y2="0" stroke="#ddd" stroke-width="1" opacity="1"/><line transform="translate(0,127)" x2="100" y2="0" stroke="#ddd" stroke-width="1" opacity="1"/><line transform="translate(0,114)" x2="100" y2="0" stroke="#ddd" stroke-width="1" opacity="1"/><line transform="translate(0,105)" x2="100" y2="0" stroke="#ddd" stroke-width="1" opacity="1"/><line transform="translate(0,98)" x2="100" y2="0" stroke="#ddd" stroke-width="1" opacity="1"/><line transform="translate(0,92)" x2="100" y2="0" stroke="#ddd" stroke-width="1" opacity="1"/><line transform="translate(0,87)" x2="100" y2="0" stroke="#ddd" stroke-width="1" opacity="1"/><line transform="translate(0,82)" x2="100" y2="0" stroke="#ddd" stroke-width="1" opacity="1"/><line transform="translate(0,78)" x2="100" y2="0" stroke="#ddd" stroke-width="1" opacity="1"/><line transform="translate(0,75)" x2="100" y2="0" stroke="#ddd" stroke-width="1" opacity="1"/><line transform="translate(0,52)" x2="100" y2="0" stroke="#ddd" stroke-width="1" opacity="1"/><line transform="translate(0,39)" x2="100" y2="0" stroke="#ddd" stroke-width="1" opacity="1"/><line transform="translate(0,30)" x2="100" y2="0" stroke="#ddd" stroke-width="1" opacity="1"/><line transform="translate(0,23)" x2="100" y2="0" stroke="#ddd" stroke-width="1" opacity="1"/><line transform="translate(0,17)" x2="100" y2="0" stroke="#ddd" stroke-width="1" opacity="1"/><line transform="translate(0,12)" x2="100" y2="0" stroke="#ddd" stroke-width="1" opacity="1"/><line transform="translate(0,7)" x2="100" y2="0" stroke="#ddd" stroke-width="1" opacity="1"/><line transform="translate(0,3)" x2="100" y2="0" stroke="#ddd" stroke-width="1" opacity="1"/><line transform="translate(0,0)" x2="100" y2="0" stroke="#ddd" stroke-width="1" opacity="1"/></g></g><path class="foreground" aria-hidden="true" d="" pointer-events="none" display="none"/></g></g><g class="mark-group role-axis" role="graphics-symbol" aria-roledescription="axis" aria-label="X-axis titled 'rel name' for a discrete scale with 5 values: similar_to, verb_group, also_see, derivationally_related_from, GENERIC"><g transform="translate(0.5,300.5)"><path class="background" aria-hidden="true" d="M0,0h0v0h0Z" pointer-events="none"/><g><g class="mark-rule role-axis-tick" pointer-events="none"><line transform="translate(10,0)" x2="0" y2="5" stroke="#888" stroke-width="1" opacity="1"/><line transform="translate(30,0)" x2="0" y2="5" stroke="#888" stroke-width="1" opacity="1"/><line transform="translate(50,0)" x2="0" y2="5" stroke="#888" stroke-width="1" opacity="1"/><line transform="translate(70,0)" x2="0" y2="5" stroke="#888" stroke-width="1" opacity="1"/><line transform="translate(90,0)" x2="0" y2="5" stroke="#888" stroke-width="1" opacity="1"/></g><g class="mark-text role-axis-label" pointer-events="none"><text text-anchor="end" transform="translate(9.5,7) rotate(270) translate(0,5)" font-family="arial narrow" font-size="16px" fill="#000" opacity="1">similar_to</text><text text-anchor="end" transform="translate(29.5,7) rotate(270) translate(0,5)" font-family="arial narrow" font-size="16px" fill="#000" opacity="1">verb_group</text><text text-anchor="end" transform="translate(49.5,7) rotate(270) translate(0,5)" font-family="arial narrow" font-size="16px" fill="#000" opacity="1">also_see</text><text text-anchor="end" transform="translate(69.5,7) rotate(270) translate(0,5)" font-family="arial narrow" font-size="16px" fill="#000" opacity="1">derivationally_related_from</text><text text-anchor="end" transform="translate(89.5,7) rotate(270) translate(0,5)" font-family="arial narrow" font-size="16px" fill="#000" opacity="1">GENERIC</text></g><g class="mark-rule role-axis-domain" pointer-events="none"><line transform="translate(0,0)" x2="100" y2="0" stroke="#888" stroke-width="1" opacity="1"/></g><g class="mark-text role-axis-title" pointer-events="none"><text text-anchor="middle" transform="translate(50,181.53125)" font-family="arial narrow" font-size="16px" font-weight="bold" fill="#000" opacity="1">rel name</text></g></g><path class="foreground" aria-hidden="true" d="" pointer-events="none" display="none"/></g></g><g class="mark-group role-axis" role="graphics-symbol" aria-roledescription="axis" aria-label="Y-axis titled 'rel #, regression' for a log scale with values from 10 to 100,000"><g transform="translate(0.5,0.5)"><path class="background" aria-hidden="true" d="M0,0h0v0h0Z" pointer-events="none"/><g><g class="mark-rule role-axis-tick" pointer-events="none"><line transform="translate(0,300)" x2="-5" y2="0" stroke="#888" stroke-width="1" opacity="1"/><line transform="translate(0,277)" x2="-5" y2="0" stroke="#888" stroke-width="1" opacity="1"/><line transform="translate(0,264)" x2="-5" y2="0" stroke="#888" stroke-width="1" opacity="1"/><line transform="translate(0,255)" x2="-5" y2="0" stroke="#888" stroke-width="1" opacity="1"/><line transform="translate(0,248)" x2="-5" y2="0" stroke="#888" stroke-width="1" opacity="1"/><line transform="translate(0,242)" x2="-5" y2="0" stroke="#888" stroke-width="1" opacity="1"/><line transform="translate(0,237)" x2="-5" y2="0" stroke="#888" stroke-width="1" opacity="1"/><line transform="translate(0,232)" x2="-5" y2="0" stroke="#888" stroke-width="1" opacity="1"/><line transform="translate(0,228)" x2="-5" y2="0" stroke="#888" stroke-width="1" opacity="1"/><line transform="translate(0,225)" x2="-5" y2="0" stroke="#888" stroke-width="1" opacity="1"/><line transform="translate(0,202)" x2="-5" y2="0" stroke="#888" stroke-width="1" opacity="1"/><line transform="translate(0,189)" x2="-5" y2="0" stroke="#888" stroke-width="1" opacity="1"/><line transform="translate(0,180)" x2="-5" y2="0" stroke="#888" stroke-width="1" opacity="1"/><line transform="translate(0,173)" x2="-5" y2="0" stroke="#888" stroke-width="1" opacity="1"/><line transform="translate(0,167)" x2="-5" y2="0" stroke="#888" stroke-width="1" opacity="1"/><line transform="translate(0,162)" x2="-5" y2="0" stroke="#888" stroke-width="1" opacity="1"/><line transform="translate(0,157)" x2="-5" y2="0" stroke="#888" stroke-width="1" opacity="1"/><line transform="translate(0,153)" x2="-5" y2="0" stroke="#888" stroke-width="1" opacity="1"/><line transform="translate(0,150)" x2="-5" y2="0" stroke="#888" stroke-width="1" opacity="1"/><line transform="translate(0,127)" x2="-5" y2="0" stroke="#888" stroke-width="1" opacity="1"/><line transform="translate(0,114)" x2="-5" y2="0" stroke="#888" stroke-width="1" opacity="1"/><line transform="translate(0,105)" x2="-5" y2="0" stroke="#888" stroke-width="1" opacity="1"/><line transform="translate(0,98)" x2="-5" y2="0" stroke="#888" stroke-width="1" opacity="1"/><line transform="translate(0,92)" x2="-5" y2="0" stroke="#888" stroke-width="1" opacity="1"/><line transform="translate(0,87)" x2="-5" y2="0" stroke="#888" stroke-width="1" opacity="1"/><line transform="translate(0,82)" x2="-5" y2="0" stroke="#888" stroke-width="1" opacity="1"/><line transform="translate(0,78)" x2="-5" y2="0" stroke="#888" stroke-width="1" opacity="1"/><line transform="translate(0,75)" x2="-5" y2="0" stroke="#888" stroke-width="1" opacity="1"/><line transform="translate(0,52)" x2="-5" y2="0" stroke="#888" stroke-width="1" opacity="1"/><line transform="translate(0,39)" x2="-5" y2="0" stroke="#888" stroke-width="1" opacity="1"/><line transform="translate(0,30)" x2="-5" y2="0" stroke="#888" stroke-width="1" opacity="1"/><line transform="translate(0,23)" x2="-5" y2="0" stroke="#888" stroke-width="1" opacity="1"/><line transform="translate(0,17)" x2="-5" y2="0" stroke="#888" stroke-width="1" opacity="1"/><line transform="translate(0,12)" x2="-5" y2="0" stroke="#888" stroke-width="1" opacity="1"/><line transform="translate(0,7)" x2="-5" y2="0" stroke="#888" stroke-width="1" opacity="1"/><line transform="translate(0,3)" x2="-5" y2="0" stroke="#888" stroke-width="1" opacity="1"/><line transform="translate(0,0)" x2="-5" y2="0" stroke="#888" stroke-width="1" opacity="1"/></g><g class="mark-text role-axis-label" pointer-events="none"><text text-anchor="end" transform="translate(-7,305)" font-family="arial narrow" font-size="16px" fill="#000" opacity="1">10</text><text text-anchor="end" transform="translate(-7,282.4227503252014)" font-family="arial narrow" font-size="16px" fill="#000" opacity="1">20</text><text text-anchor="end" transform="translate(-7,269.21590589602533)" font-family="arial narrow" font-size="16px" fill="#000" opacity="1"/><text text-anchor="end" transform="translate(-7,259.84550065040287)" font-family="arial narrow" font-size="16px" fill="#000" opacity="1"/><text text-anchor="end" transform="translate(-7,252.5772496747986)" font-family="arial narrow" font-size="16px" fill="#000" opacity="1"/><text text-anchor="end" transform="translate(-7,246.63865622122674)" font-family="arial narrow" font-size="16px" fill="#000" opacity="1"/><text text-anchor="end" transform="translate(-7,241.61764699893072)" font-family="arial narrow" font-size="16px" fill="#000" opacity="1"/><text text-anchor="end" transform="translate(-7,237.26825097560425)" font-family="arial narrow" font-size="16px" fill="#000" opacity="1"/><text text-anchor="end" transform="translate(-7,233.43181179205064)" font-family="arial narrow" font-size="16px" fill="#000" opacity="1"/><text text-anchor="end" transform="translate(-7,230)" font-family="arial narrow" font-size="16px" fill="#000" opacity="1">100</text><text text-anchor="end" transform="translate(-7,207.42275032520143)" font-family="arial narrow" font-size="16px" fill="#000" opacity="1">200</text><text text-anchor="end" transform="translate(-7,194.21590589602533)" font-family="arial narrow" font-size="16px" fill="#000" opacity="1"/><text text-anchor="end" transform="translate(-7,184.84550065040284)" font-family="arial narrow" font-size="16px" fill="#000" opacity="1"/><text text-anchor="end" transform="translate(-7,177.57724967479862)" font-family="arial narrow" font-size="16px" fill="#000" opacity="1"/><text text-anchor="end" transform="translate(-7,171.63865622122674)" font-family="arial narrow" font-size="16px" fill="#000" opacity="1"/><text text-anchor="end" transform="translate(-7,166.61764699893075)" font-family="arial narrow" font-size="16px" fill="#000" opacity="1"/><text text-anchor="end" transform="translate(-7,162.26825097560425)" font-family="arial narrow" font-size="16px" fill="#000" opacity="1"/><text text-anchor="end" transform="translate(-7,158.43181179205064)" font-family="arial narrow" font-size="16px" fill="#000" opacity="1"/><text text-anchor="end" transform="translate(-7,155.00000000000003)" font-family="arial narrow" font-size="16px" fill="#000" opacity="1">1,000</text><text text-anchor="end" transform="translate(-7,132.42275032520143)" font-family="arial narrow" font-size="16px" fill="#000" opacity="1">2,000</text><text text-anchor="end" transform="translate(-7,119.21590589602538)" font-family="arial narrow" font-size="16px" fill="#000" opacity="1"/><text text-anchor="end" transform="translate(-7,109.84550065040284)" font-family="arial narrow" font-size="16px" fill="#000" opacity="1"/><text text-anchor="end" transform="translate(-7,102.5772496747986)" font-family="arial narrow" font-size="16px" fill="#000" opacity="1"/><text text-anchor="end" transform="translate(-7,96.63865622122678)" font-family="arial narrow" font-size="16px" fill="#000" opacity="1"/><text text-anchor="end" transform="translate(-7,91.61764699893077)" font-family="arial narrow" font-size="16px" fill="#000" opacity="1"/><text text-anchor="end" transform="translate(-7,87.26825097560425)" font-family="arial narrow" font-size="16px" fill="#000" opacity="1"/><text text-anchor="end" transform="translate(-7,83.43181179205064)" font-family="arial narrow" font-size="16px" fill="#000" opacity="1"/><text text-anchor="end" transform="translate(-7,80)" font-family="arial narrow" font-size="16px" fill="#000" opacity="1">10,000</text><text text-anchor="end" transform="translate(-7,57.42275032520147)" font-family="arial narrow" font-size="16px" fill="#000" opacity="1">20,000</text><text text-anchor="end" transform="translate(-7,44.215905896025305)" font-family="arial narrow" font-size="16px" fill="#000" opacity="1"/><text text-anchor="end" transform="translate(-7,34.84550065040284)" font-family="arial narrow" font-size="16px" fill="#000" opacity="1"/><text text-anchor="end" transform="translate(-7,27.57724967479866)" font-family="arial narrow" font-size="16px" fill="#000" opacity="1"/><text text-anchor="end" transform="translate(-7,21.63865622122678)" font-family="arial narrow" font-size="16px" fill="#000" opacity="1"/><text text-anchor="end" transform="translate(-7,16.61764699893083)" font-family="arial narrow" font-size="16px" fill="#000" opacity="1"/><text text-anchor="end" transform="translate(-7,12.268250975604317)" font-family="arial narrow" font-size="16px" fill="#000" opacity="1"/><text text-anchor="end" transform="translate(-7,8.43181179205071)" font-family="arial narrow" font-size="16px" fill="#000" opacity="1"/><text text-anchor="end" transform="translate(-7,5)" font-family="arial narrow" font-size="16px" fill="#000" opacity="1">100,000</text></g><g class="mark-rule role-axis-domain" pointer-events="none"><line transform="translate(0,300)" x2="0" y2="-300" stroke="#888" stroke-width="1" opacity="1"/></g><g class="mark-text role-axis-title" pointer-events="none"><text text-anchor="middle" transform="translate(-58.4296875,150) rotate(-90) translate(0,-3)" font-family="arial narrow" font-size="16px" font-weight="bold" fill="#000" opacity="1">rel #, regression</text></g></g><path class="foreground" aria-hidden="true" d="" pointer-events="none" display="none"/></g></g><g class="mark-rect role-mark layer_0_marks" role="graphics-object" aria-roledescription="rect mark container"><path aria-label="rel name: similar_to; rel #: 80" role="graphics-symbol" aria-roledescription="bar" d="M1,232.26825097560425h18v67.73174902439575h-18Z" fill="#003f5c"/><path aria-label="rel name: verb_group; rel #: 1138" role="graphics-symbol" aria-roledescription="bar" d="M21,145.7893303455711h18v154.2106696544289h-18Z" fill="#374c80"/><path aria-label="rel name: also_see; rel #: 1299" role="graphics-symbol" aria-roledescription="bar" d="M41,141.47931366952292h18v158.52068633047708h-18Z" fill="#7a5195"/><path aria-label="rel name: derivationally_related_from; rel #: 29715" role="graphics-symbol" aria-roledescription="bar" d="M61,39.526819905432895h18v260.4731800945671h-18Z" fill="#bc5090"/><path aria-label="rel name: GENERIC; rel #: 80798" role="graphics-symbol" aria-roledescription="bar" d="M81,6.9449541916404955h18v293.0550458083595h-18Z" fill="#ef5675"/></g><g class="mark-line role-mark layer_1_layer_0_marks" role="graphics-object" aria-roledescription="line mark container"><path aria-label="rel name: similar_to; regression: 80" role="graphics-symbol" aria-roledescription="line mark" d="M10,232.268L30,108.235L50,48.433L70,28.562L90,16.31" stroke="red" stroke-width="2"/></g><g class="mark-symbol role-mark layer_1_layer_1_marks" role="graphics-object" aria-roledescription="symbol mark container"><path aria-label="rel name: similar_to; regression: 80" role="graphics-symbol" aria-roledescription="point" transform="translate(10,232.26825097560425)" d="M2.739,0A2.739,2.739,0,1,1,-2.739,0A2.739,2.739,0,1,1,2.739,0" fill="#4c78a8" stroke-width="2" opacity="1"/><path aria-label="rel name: verb_group; regression: 3604.7" role="graphics-symbol" aria-roledescription="point" transform="translate(30,108.23481550945489)" d="M2.739,0A2.739,2.739,0,1,1,-2.739,0A2.739,2.739,0,1,1,2.739,0" fill="#4c78a8" stroke-width="2" opacity="1"/><path aria-label="rel name: also_see; regression: 22606" role="graphics-symbol" aria-roledescription="point" transform="translate(50,48.43322075513622)" d="M2.739,0A2.739,2.739,0,1,1,-2.739,0A2.739,2.739,0,1,1,2.739,0" fill="#4c78a8" stroke-width="2" opacity="1"/><path aria-label="rel name: derivationally_related_from; regression: 41607.3" role="graphics-symbol" aria-roledescription="point" transform="translate(70,28.562284929708092)" d="M2.739,0A2.739,2.739,0,1,1,-2.739,0A2.739,2.739,0,1,1,2.739,0" fill="#4c78a8" stroke-width="2" opacity="1"/><path aria-label="rel name: GENERIC; regression: 60608.6" role="graphics-symbol" aria-roledescription="point" transform="translate(90,16.309931074224714)" d="M2.739,0A2.739,2.739,0,1,1,-2.739,0A2.739,2.739,0,1,1,2.739,0" fill="#4c78a8" stroke-width="2" opacity="1"/></g></g><path class="foreground" aria-hidden="true" d="" display="none"/></g></g></g></svg>